<?xml version="1.0" encoding="UTF-8" standalone="no"?>
<!DOCTYPE svg PUBLIC "-//W3C//DTD SVG 1.1//EN"
 "http://www.w3.org/Graphics/SVG/1.1/DTD/svg11.dtd">
<!-- Generated by graphviz version 2.47.3 (20210619.1520)
 -->
<!-- Title: dependencies Pages: 1 -->
<svg width="1002pt" height="247pt"
 viewBox="0.00 0.00 1002.00 246.80" xmlns="http://www.w3.org/2000/svg" xmlns:xlink="http://www.w3.org/1999/xlink">
<g id="graph0" class="graph" transform="scale(1 1) rotate(0) translate(4 242.8)">
<title>dependencies</title>
<polygon fill="white" stroke="transparent" points="-4,4 -4,-242.8 998,-242.8 998,4 -4,4"/>
<text text-anchor="middle" x="497" y="-8.2" font-family="sans-serif" font-size="14.00">dependencies</text>
<g id="clust1" class="cluster">
<title>cluster_MapModule</title>
<polygon fill="none" stroke="black" stroke-dasharray="1,5" points="8,-32.8 8,-230.8 986,-230.8 986,-32.8 8,-32.8"/>
</g>
<g id="clust2" class="cluster">
<title>cluster_MapModule_declarations</title>
<polygon fill="none" stroke="black" points="417,-40.8 417,-92.8 978,-92.8 978,-40.8 417,-40.8"/>
</g>
<g id="clust7" class="cluster">
<title>cluster_MapModule_imports</title>
<polygon fill="none" stroke="black" points="16,-40.8 16,-92.8 409,-92.8 409,-40.8 16,-40.8"/>
</g>
<g id="clust8" class="cluster">
<title>cluster_MapModule_exports</title>
<polygon fill="none" stroke="black" points="342,-170.8 342,-222.8 620,-222.8 620,-170.8 342,-170.8"/>
</g>
<!-- MapComponent -->
<g id="node1" class="node">
<title>MapComponent</title>
<polygon fill="#ffffb3" stroke="black" points="970.49,-84.8 863.51,-84.8 863.51,-48.8 970.49,-48.8 970.49,-84.8"/>
<text text-anchor="middle" x="917" y="-62.6" font-family="Times,serif" font-size="14.00">MapComponent</text>
</g>
<!-- MapModule -->
<g id="node5" class="node">
<title>MapModule</title>
<polygon fill="#8dd3c7" stroke="black" points="529.71,-149.8 526.71,-153.8 505.71,-153.8 502.71,-149.8 444.29,-149.8 444.29,-113.8 529.71,-113.8 529.71,-149.8"/>
<text text-anchor="middle" x="487" y="-127.6" font-family="Times,serif" font-size="14.00">MapModule</text>
</g>
<!-- MapComponent&#45;&gt;MapModule -->
<g id="edge1" class="edge">
<title>MapComponent&#45;&gt;MapModule</title>
<path fill="none" stroke="black" d="M917,-85.09C917,-107.01 917,-140.8 917,-140.8 917,-140.8 539.8,-140.8 539.8,-140.8"/>
<polygon fill="black" stroke="black" points="539.8,-137.3 529.8,-140.8 539.8,-144.3 539.8,-137.3"/>
</g>
<!-- ItineraryComponent -->
<g id="node2" class="node">
<title>ItineraryComponent</title>
<polygon fill="#ffffb3" stroke="black" points="845.53,-84.8 716.47,-84.8 716.47,-48.8 845.53,-48.8 845.53,-84.8"/>
<text text-anchor="middle" x="781" y="-62.6" font-family="Times,serif" font-size="14.00">ItineraryComponent</text>
</g>
<!-- ItineraryComponent&#45;&gt;MapModule -->
<g id="edge2" class="edge">
<title>ItineraryComponent&#45;&gt;MapModule</title>
<path fill="none" stroke="black" d="M781,-84.91C781,-104.14 781,-131.8 781,-131.8 781,-131.8 539.75,-131.8 539.75,-131.8"/>
<polygon fill="black" stroke="black" points="539.75,-128.3 529.75,-131.8 539.75,-135.3 539.75,-128.3"/>
</g>
<!-- ParkingsComponent -->
<g id="node3" class="node">
<title>ParkingsComponent</title>
<polygon fill="#ffffb3" stroke="black" points="698.33,-84.8 567.67,-84.8 567.67,-48.8 698.33,-48.8 698.33,-84.8"/>
<text text-anchor="middle" x="633" y="-62.6" font-family="Times,serif" font-size="14.00">ParkingsComponent</text>
</g>
<!-- ParkingsComponent&#45;&gt;MapModule -->
<g id="edge3" class="edge">
<title>ParkingsComponent&#45;&gt;MapModule</title>
<path fill="none" stroke="black" d="M590.04,-84.83C590.04,-101.2 590.04,-122.8 590.04,-122.8 590.04,-122.8 539.8,-122.8 539.8,-122.8"/>
<polygon fill="black" stroke="black" points="539.8,-119.3 529.8,-122.8 539.8,-126.3 539.8,-119.3"/>
</g>
<!-- ParkingComponent -->
<g id="node4" class="node">
<title>ParkingComponent</title>
<polygon fill="#ffffb3" stroke="black" points="549.38,-84.8 424.62,-84.8 424.62,-48.8 549.38,-48.8 549.38,-84.8"/>
<text text-anchor="middle" x="487" y="-62.6" font-family="Times,serif" font-size="14.00">ParkingComponent</text>
</g>
<!-- ParkingComponent&#45;&gt;MapModule -->
<g id="edge4" class="edge">
<title>ParkingComponent&#45;&gt;MapModule</title>
<path fill="none" stroke="black" d="M487,-84.91C487,-84.91 487,-103.79 487,-103.79"/>
<polygon fill="black" stroke="black" points="483.5,-103.79 487,-113.79 490.5,-103.79 483.5,-103.79"/>
</g>
<!-- MapComponent  -->
<g id="node9" class="node">
<title>MapComponent </title>
<polygon fill="#fb8072" stroke="black" points="612.49,-214.8 501.51,-214.8 501.51,-178.8 612.49,-178.8 612.49,-214.8"/>
<text text-anchor="middle" x="557" y="-192.6" font-family="Times,serif" font-size="14.00">MapComponent </text>
</g>
<!-- MapModule&#45;&gt;MapComponent  -->
<g id="edge8" class="edge">
<title>MapModule&#45;&gt;MapComponent </title>
<path fill="none" stroke="black" stroke-dasharray="5,2" d="M515.68,-149.91C515.68,-149.91 515.68,-168.79 515.68,-168.79"/>
<polygon fill="black" stroke="black" points="512.18,-168.79 515.68,-178.79 519.18,-168.79 512.18,-168.79"/>
</g>
<!-- ItineraryComponent  -->
<g id="node10" class="node">
<title>ItineraryComponent </title>
<polygon fill="#fb8072" stroke="black" points="483.52,-214.8 350.48,-214.8 350.48,-178.8 483.52,-178.8 483.52,-214.8"/>
<text text-anchor="middle" x="417" y="-192.6" font-family="Times,serif" font-size="14.00">ItineraryComponent </text>
</g>
<!-- MapModule&#45;&gt;ItineraryComponent  -->
<g id="edge9" class="edge">
<title>MapModule&#45;&gt;ItineraryComponent </title>
<path fill="none" stroke="black" stroke-dasharray="5,2" d="M463.95,-149.91C463.95,-149.91 463.95,-168.79 463.95,-168.79"/>
<polygon fill="black" stroke="black" points="460.45,-168.79 463.95,-178.79 467.45,-168.79 460.45,-168.79"/>
</g>
<!-- CommonModule -->
<g id="node6" class="node">
<title>CommonModule</title>
<polygon fill="#8dd3c7" stroke="black" points="400.67,-84.8 397.67,-88.8 376.67,-88.8 373.67,-84.8 289.33,-84.8 289.33,-48.8 400.67,-48.8 400.67,-84.8"/>
<text text-anchor="middle" x="345" y="-62.6" font-family="Times,serif" font-size="14.00">CommonModule</text>
</g>
<!-- CommonModule&#45;&gt;MapModule -->
<g id="edge5" class="edge">
<title>CommonModule&#45;&gt;MapModule</title>
<path fill="none" stroke="black" d="M375.66,-84.83C375.66,-101.2 375.66,-122.8 375.66,-122.8 375.66,-122.8 434.27,-122.8 434.27,-122.8"/>
<polygon fill="black" stroke="black" points="434.27,-126.3 444.27,-122.8 434.27,-119.3 434.27,-126.3"/>
</g>
<!-- LeafletModule -->
<g id="node7" class="node">
<title>LeafletModule</title>
<polygon fill="#8dd3c7" stroke="black" points="271.69,-84.8 268.69,-88.8 247.69,-88.8 244.69,-84.8 172.31,-84.8 172.31,-48.8 271.69,-48.8 271.69,-84.8"/>
<text text-anchor="middle" x="222" y="-62.6" font-family="Times,serif" font-size="14.00">LeafletModule</text>
</g>
<!-- LeafletModule&#45;&gt;MapModule -->
<g id="edge6" class="edge">
<title>LeafletModule&#45;&gt;MapModule</title>
<path fill="none" stroke="black" d="M222,-84.91C222,-104.14 222,-131.8 222,-131.8 222,-131.8 434.13,-131.8 434.13,-131.8"/>
<polygon fill="black" stroke="black" points="434.13,-135.3 444.13,-131.8 434.13,-128.3 434.13,-135.3"/>
</g>
<!-- MapRoutingModule -->
<g id="node8" class="node">
<title>MapRoutingModule</title>
<polygon fill="#8dd3c7" stroke="black" points="154.33,-84.8 151.33,-88.8 130.33,-88.8 127.33,-84.8 23.67,-84.8 23.67,-48.8 154.33,-48.8 154.33,-84.8"/>
<text text-anchor="middle" x="89" y="-62.6" font-family="Times,serif" font-size="14.00">MapRoutingModule</text>
</g>
<!-- MapRoutingModule&#45;&gt;MapModule -->
<g id="edge7" class="edge">
<title>MapRoutingModule&#45;&gt;MapModule</title>
<path fill="none" stroke="black" d="M89,-85.09C89,-107.01 89,-140.8 89,-140.8 89,-140.8 434.03,-140.8 434.03,-140.8"/>
<polygon fill="black" stroke="black" points="434.03,-144.3 444.03,-140.8 434.03,-137.3 434.03,-144.3"/>
</g>
</g>
</svg>
