<?xml version="1.0" encoding="UTF-8" standalone="no"?> <!-- Created with Vectornator (http://vectornator.io/) --><!DOCTYPE svg PUBLIC "-//W3C//DTD SVG 1.1//EN" "http://www.w3.org/Graphics/SVG/1.1/DTD/svg11.dtd">
<svg height="100%" stroke-miterlimit="10" style="fill-rule:nonzero;clip-rule:evenodd;stroke-linecap:round;stroke-linejoin:round;" version="1.1" viewBox="0 0 512 512" width="100%" xml:space="preserve" xmlns="http://www.w3.org/2000/svg" xmlns:vectornator="http://vectornator.io" xmlns:xlink="http://www.w3.org/1999/xlink">
<metadata>
<vectornator:setting key="IsTimeLapseWatermarkDisabled" value="false"/>
<vectornator:setting key="UndoHistoryDisabled" value="true"/>
<vectornator:setting key="VNDimensionsVisible" value="true"/>
<vectornator:setting key="VNSnapToGuides" value="true"/>
<vectornator:setting key="WDCMYKEnabledKey" value="false"/>
<vectornator:setting key="WDDisplayWhiteBackground" value="false"/>
<vectornator:setting key="WDDynamicGuides" value="false"/>
<vectornator:setting key="WDGuidesVisible" value="true"/>
<vectornator:setting key="WDIsolateActiveLayer" value="false"/>
<vectornator:setting key="WDOutlineMode" value="false"/>
<vectornator:setting key="WDRulersVisible" value="true"/>
<vectornator:setting key="WDSnapToEdges" value="false"/>
<vectornator:setting key="WDSnapToGrid" value="false"/>
<vectornator:setting key="WDSnapToPoints" value="false"/>
<vectornator:setting key="WDUnits" value="Pixels"/>
</metadata>
<defs/>
<g id="spark_routing_dest-marker" vectornator:layerName="spark_routing_dest-marker">
<path d="M259.103 337.595C252.122 337.595 243.176 336.068 239.03 334.977L239.03 273.012C242.521 272.14 253.212 270.394 262.813 270.394C286.813 270.394 300.558 282.394 300.558 302.249C300.558 324.504 284.631 337.595 259.103 337.595Z" fill="#ffffff" fill-rule="evenodd" opacity="1" stroke="none"/>
<path d="M500.852 277.158L435.396 277.158L435.396 451.705L239.03 451.705L239.03 373.377C243.394 374.032 253.212 375.123 259.54 375.123C287.904 375.123 312.122 368.141 328.486 352.432C341.141 340.213 348.123 322.104 348.123 300.94C348.123 279.776 338.959 261.885 325.431 250.976C311.249 239.412 290.086 233.521 260.413 233.521C230.958 233.521 210.23 235.485 195.394 238.103L195.394 451.705L86.3014 451.705L86.3014 277.158L20.8461 277.158L260.849 61.1555L500.852 277.158Z" fill="#ffffff" fill-rule="evenodd" opacity="1" stroke="none"/>
</g>
</svg>
