<?xml version="1.0" encoding="UTF-8" standalone="no"?>
<!DOCTYPE svg PUBLIC "-//W3C//DTD SVG 1.1//EN"
 "http://www.w3.org/Graphics/SVG/1.1/DTD/svg11.dtd">
<!-- Generated by graphviz version 2.47.3 (20210619.1520)
 -->
<!-- Title: dependencies Pages: 1 -->
<svg width="602pt" height="174pt"
 viewBox="0.00 0.00 602.00 173.80" xmlns="http://www.w3.org/2000/svg" xmlns:xlink="http://www.w3.org/1999/xlink">
<g id="graph0" class="graph" transform="scale(1 1) rotate(0) translate(4 169.8)">
<title>dependencies</title>
<polygon fill="white" stroke="transparent" points="-4,4 -4,-169.8 598,-169.8 598,4 -4,4"/>
<text text-anchor="middle" x="297" y="-8.2" font-family="sans-serif" font-size="14.00">dependencies</text>
<g id="clust1" class="cluster">
<title>cluster_RegisterModule</title>
<polygon fill="none" stroke="black" stroke-dasharray="1,5" points="8,-32.8 8,-157.8 586,-157.8 586,-32.8 8,-32.8"/>
</g>
<g id="clust4" class="cluster">
<title>cluster_RegisterModule_imports</title>
<polygon fill="none" stroke="black" points="168,-40.8 168,-92.8 578,-92.8 578,-40.8 168,-40.8"/>
</g>
<g id="clust2" class="cluster">
<title>cluster_RegisterModule_declarations</title>
<polygon fill="none" stroke="black" points="16,-40.8 16,-92.8 160,-92.8 160,-40.8 16,-40.8"/>
</g>
<!-- RegisterComponent -->
<g id="node1" class="node">
<title>RegisterComponent</title>
<polygon fill="#ffffb3" stroke="black" points="151.98,-84.8 24.02,-84.8 24.02,-48.8 151.98,-48.8 151.98,-84.8"/>
<text text-anchor="middle" x="88" y="-62.6" font-family="Times,serif" font-size="14.00">RegisterComponent</text>
</g>
<!-- RegisterModule -->
<g id="node2" class="node">
<title>RegisterModule</title>
<polygon fill="#8dd3c7" stroke="black" points="347.2,-149.8 344.2,-153.8 323.2,-153.8 320.2,-149.8 240.8,-149.8 240.8,-113.8 347.2,-113.8 347.2,-149.8"/>
<text text-anchor="middle" x="294" y="-127.6" font-family="Times,serif" font-size="14.00">RegisterModule</text>
</g>
<!-- RegisterComponent&#45;&gt;RegisterModule -->
<g id="edge1" class="edge">
<title>RegisterComponent&#45;&gt;RegisterModule</title>
<path fill="none" stroke="black" d="M88,-84.91C88,-104.14 88,-131.8 88,-131.8 88,-131.8 230.68,-131.8 230.68,-131.8"/>
<polygon fill="black" stroke="black" points="230.68,-135.3 240.68,-131.8 230.68,-128.3 230.68,-135.3"/>
</g>
<!-- CommonModule -->
<g id="node3" class="node">
<title>CommonModule</title>
<polygon fill="#8dd3c7" stroke="black" points="569.67,-84.8 566.67,-88.8 545.67,-88.8 542.67,-84.8 458.33,-84.8 458.33,-48.8 569.67,-48.8 569.67,-84.8"/>
<text text-anchor="middle" x="514" y="-62.6" font-family="Times,serif" font-size="14.00">CommonModule</text>
</g>
<!-- CommonModule&#45;&gt;RegisterModule -->
<g id="edge2" class="edge">
<title>CommonModule&#45;&gt;RegisterModule</title>
<path fill="none" stroke="black" d="M514,-84.91C514,-104.14 514,-131.8 514,-131.8 514,-131.8 357.26,-131.8 357.26,-131.8"/>
<polygon fill="black" stroke="black" points="357.26,-128.3 347.26,-131.8 357.26,-135.3 357.26,-128.3"/>
</g>
<!-- RegisterRoutingModule -->
<g id="node4" class="node">
<title>RegisterRoutingModule</title>
<polygon fill="#8dd3c7" stroke="black" points="440.82,-84.8 437.82,-88.8 416.82,-88.8 413.82,-84.8 289.18,-84.8 289.18,-48.8 440.82,-48.8 440.82,-84.8"/>
<text text-anchor="middle" x="365" y="-62.6" font-family="Times,serif" font-size="14.00">RegisterRoutingModule</text>
</g>
<!-- RegisterRoutingModule&#45;&gt;RegisterModule -->
<g id="edge3" class="edge">
<title>RegisterRoutingModule&#45;&gt;RegisterModule</title>
<path fill="none" stroke="black" d="M318.22,-84.91C318.22,-84.91 318.22,-103.79 318.22,-103.79"/>
<polygon fill="black" stroke="black" points="314.72,-103.79 318.22,-113.79 321.72,-103.79 314.72,-103.79"/>
</g>
<!-- FormsModule -->
<g id="node5" class="node">
<title>FormsModule</title>
<polygon fill="#8dd3c7" stroke="black" points="271.83,-84.8 268.83,-88.8 247.83,-88.8 244.83,-84.8 176.17,-84.8 176.17,-48.8 271.83,-48.8 271.83,-84.8"/>
<text text-anchor="middle" x="224" y="-62.6" font-family="Times,serif" font-size="14.00">FormsModule</text>
</g>
<!-- FormsModule&#45;&gt;RegisterModule -->
<g id="edge4" class="edge">
<title>FormsModule&#45;&gt;RegisterModule</title>
<path fill="none" stroke="black" d="M256.28,-84.91C256.28,-84.91 256.28,-103.79 256.28,-103.79"/>
<polygon fill="black" stroke="black" points="252.78,-103.79 256.28,-113.79 259.78,-103.79 252.78,-103.79"/>
</g>
</g>
</svg>
