<svg id="Calque_1" data-name="Calque 1" xmlns="http://www.w3.org/2000/svg" viewBox="0 0 24 24"><defs><style>.cls-1{fill:none;}.cls-2{fill:#c4c4c4;fill-rule:evenodd;}</style></defs><g id="Icons"><g id="Rounded"><g id="Navigation"><g id="_-Round-_-Navigation-_-close" data-name="-Round-/-Navigation-/-close"><polygon id="Path" class="cls-1" points="0 0 24 0 24 24 0 24 0 0"/><path id="_-Icon-Color" data-name="🔹-Icon-Color" class="cls-2" d="M13.3.71a1,1,0,0,0-1.41,0L7,5.59,2.11.7A1,1,0,0,0,.7,2.11L5.59,7,.7,11.89A1,1,0,0,0,2.11,13.3L7,8.41l4.89,4.89a1,1,0,0,0,1.41-1.41L8.41,7,13.3,2.11A1,1,0,0,0,13.3.71Z" transform="translate(5 5)"/></g></g></g></g></svg>