<?xml version="1.0" encoding="UTF-8" standalone="no"?>
<!DOCTYPE svg PUBLIC "-//W3C//DTD SVG 1.1//EN"
 "http://www.w3.org/Graphics/SVG/1.1/DTD/svg11.dtd">
<!-- Generated by graphviz version 2.47.3 (20210619.1520)
 -->
<!-- Title: dependencies Pages: 1 -->
<svg width="5404pt" height="261pt"
 viewBox="0.00 0.00 5404.00 260.80" xmlns="http://www.w3.org/2000/svg" xmlns:xlink="http://www.w3.org/1999/xlink">
<g id="graph0" class="graph" transform="scale(1 1) rotate(0) translate(4 256.8)">
<title>dependencies</title>
<polygon fill="white" stroke="transparent" points="-4,4 -4,-256.8 5400,-256.8 5400,4 -4,4"/>
<text text-anchor="middle" x="2698" y="-8.2" font-family="sans-serif" font-size="14.00">dependencies</text>
<g id="clust1" class="cluster">
<title>cluster_AppModule</title>
<polygon fill="none" stroke="black" stroke-dasharray="1,5" points="8,-32.8 8,-244.8 674,-244.8 674,-32.8 8,-32.8"/>
</g>
<g id="clust2" class="cluster">
<title>cluster_AppModule_declarations</title>
<polygon fill="none" stroke="black" points="16,-40.8 16,-92.8 138,-92.8 138,-40.8 16,-40.8"/>
</g>
<g id="clust4" class="cluster">
<title>cluster_AppModule_imports</title>
<polygon fill="none" stroke="black" points="146,-40.8 146,-92.8 666,-92.8 666,-40.8 146,-40.8"/>
</g>
<g id="clust6" class="cluster">
<title>cluster_AppModule_bootstrap</title>
<polygon fill="none" stroke="black" points="293,-184.8 293,-236.8 417,-236.8 417,-184.8 293,-184.8"/>
</g>
<g id="clust8" class="cluster">
<title>cluster_HomeModule</title>
<polygon fill="none" stroke="black" stroke-dasharray="1,5" points="1690,-32.8 1690,-236.8 4362,-236.8 4362,-32.8 1690,-32.8"/>
</g>
<g id="clust9" class="cluster">
<title>cluster_HomeModule_declarations</title>
<polygon fill="none" stroke="black" points="2108,-116.8 2108,-168.8 4354,-168.8 4354,-116.8 2108,-116.8"/>
</g>
<g id="clust23" class="cluster">
<title>cluster_HomeModule_imports</title>
<polygon fill="none" stroke="black" points="1698,-40.8 1698,-168.8 2100,-168.8 2100,-40.8 1698,-40.8"/>
</g>
<g id="clust27" class="cluster">
<title>cluster_LoginModule</title>
<polygon fill="none" stroke="black" stroke-dasharray="1,5" points="682,-32.8 682,-168.8 990,-168.8 990,-32.8 682,-32.8"/>
</g>
<g id="clust28" class="cluster">
<title>cluster_LoginModule_declarations</title>
<polygon fill="none" stroke="black" points="690,-40.8 690,-92.8 820,-92.8 820,-40.8 690,-40.8"/>
</g>
<g id="clust30" class="cluster">
<title>cluster_LoginModule_imports</title>
<polygon fill="none" stroke="black" points="828,-40.8 828,-92.8 982,-92.8 982,-40.8 828,-40.8"/>
</g>
<g id="clust34" class="cluster">
<title>cluster_LoginRoutingModule</title>
<polygon fill="none" stroke="black" stroke-dasharray="1,5" points="998,-108.8 998,-176.8 1338,-176.8 1338,-108.8 998,-108.8"/>
</g>
<g id="clust36" class="cluster">
<title>cluster_LoginRoutingModule_imports</title>
<polygon fill="none" stroke="black" points="1132,-116.8 1132,-168.8 1330,-168.8 1330,-116.8 1132,-116.8"/>
</g>
<g id="clust37" class="cluster">
<title>cluster_LoginRoutingModule_exports</title>
<polygon fill="none" stroke="black" points="1006,-116.8 1006,-168.8 1124,-168.8 1124,-116.8 1006,-116.8"/>
</g>
<g id="clust40" class="cluster">
<title>cluster_MapModule</title>
<polygon fill="none" stroke="black" stroke-dasharray="1,5" points="4370,-32.8 4370,-100.8 5388,-100.8 5388,-32.8 4370,-32.8"/>
</g>
<g id="clust41" class="cluster">
<title>cluster_MapModule_declarations</title>
<polygon fill="none" stroke="black" points="4818,-40.8 4818,-92.8 5380,-92.8 5380,-40.8 4818,-40.8"/>
</g>
<g id="clust46" class="cluster">
<title>cluster_MapModule_imports</title>
<polygon fill="none" stroke="black" points="4664,-40.8 4664,-92.8 4810,-92.8 4810,-40.8 4664,-40.8"/>
</g>
<g id="clust47" class="cluster">
<title>cluster_MapModule_exports</title>
<polygon fill="none" stroke="black" points="4378,-40.8 4378,-92.8 4656,-92.8 4656,-40.8 4378,-40.8"/>
</g>
<g id="clust50" class="cluster">
<title>cluster_RegisterModule</title>
<polygon fill="none" stroke="black" stroke-dasharray="1,5" points="1346,-32.8 1346,-168.8 1682,-168.8 1682,-32.8 1346,-32.8"/>
</g>
<g id="clust51" class="cluster">
<title>cluster_RegisterModule_declarations</title>
<polygon fill="none" stroke="black" points="1530,-40.8 1530,-92.8 1674,-92.8 1674,-40.8 1530,-40.8"/>
</g>
<g id="clust53" class="cluster">
<title>cluster_RegisterModule_imports</title>
<polygon fill="none" stroke="black" points="1354,-40.8 1354,-92.8 1522,-92.8 1522,-40.8 1354,-40.8"/>
</g>
<!-- AppComponent -->
<g id="node1" class="node">
<title>AppComponent</title>
<polygon fill="#ffffb3" stroke="black" points="129.94,-84.8 24.06,-84.8 24.06,-48.8 129.94,-48.8 129.94,-84.8"/>
<text text-anchor="middle" x="77" y="-62.6" font-family="Times,serif" font-size="14.00">AppComponent</text>
</g>
<!-- AppModule -->
<g id="node2" class="node">
<title>AppModule</title>
<polygon fill="#8dd3c7" stroke="black" points="396.66,-160.8 393.66,-164.8 372.66,-164.8 369.66,-160.8 313.34,-160.8 313.34,-124.8 396.66,-124.8 396.66,-160.8"/>
<text text-anchor="middle" x="355" y="-138.6" font-family="Times,serif" font-size="14.00">AppModule</text>
</g>
<!-- AppComponent&#45;&gt;AppModule -->
<g id="edge1" class="edge">
<title>AppComponent&#45;&gt;AppModule</title>
<path fill="none" stroke="black" d="M77,-85C77,-109.16 77,-148.8 77,-148.8 77,-148.8 303.08,-148.8 303.08,-148.8"/>
<polygon fill="black" stroke="black" points="303.08,-152.3 313.08,-148.8 303.08,-145.3 303.08,-152.3"/>
</g>
<!-- AppComponent  -->
<g id="node7" class="node">
<title>AppComponent </title>
<polygon fill="#80b1d3" stroke="black" points="409.44,-228.8 300.56,-228.8 300.56,-192.8 409.44,-192.8 409.44,-228.8"/>
<text text-anchor="middle" x="355" y="-206.6" font-family="Times,serif" font-size="14.00">AppComponent </text>
</g>
<!-- AppModule&#45;&gt;AppComponent  -->
<g id="edge6" class="edge">
<title>AppModule&#45;&gt;AppComponent </title>
<path fill="none" stroke="black" stroke-dasharray="1,5" d="M355,-161.02C355,-161.02 355,-182.53 355,-182.53"/>
<polygon fill="black" stroke="black" points="351.5,-182.53 355,-192.53 358.5,-182.53 351.5,-182.53"/>
</g>
<!-- BrowserModule -->
<g id="node3" class="node">
<title>BrowserModule</title>
<polygon fill="#8dd3c7" stroke="black" points="544.47,-84.8 541.47,-88.8 520.47,-88.8 517.47,-84.8 437.53,-84.8 437.53,-48.8 544.47,-48.8 544.47,-84.8"/>
<text text-anchor="middle" x="491" y="-62.6" font-family="Times,serif" font-size="14.00">BrowserModule</text>
</g>
<!-- BrowserModule&#45;&gt;AppModule -->
<g id="edge2" class="edge">
<title>BrowserModule&#45;&gt;AppModule</title>
<path fill="none" stroke="black" d="M491,-84.81C491,-107.29 491,-142.8 491,-142.8 491,-142.8 406.91,-142.8 406.91,-142.8"/>
<polygon fill="black" stroke="black" points="406.91,-139.3 396.91,-142.8 406.91,-146.3 406.91,-139.3"/>
</g>
<!-- AppRoutingModule -->
<g id="node4" class="node">
<title>AppRoutingModule</title>
<polygon fill="#8dd3c7" stroke="black" points="419.27,-84.8 416.27,-88.8 395.27,-88.8 392.27,-84.8 290.73,-84.8 290.73,-48.8 419.27,-48.8 419.27,-84.8"/>
<text text-anchor="middle" x="355" y="-62.6" font-family="Times,serif" font-size="14.00">AppRoutingModule</text>
</g>
<!-- AppRoutingModule&#45;&gt;AppModule -->
<g id="edge3" class="edge">
<title>AppRoutingModule&#45;&gt;AppModule</title>
<path fill="none" stroke="black" d="M355,-84.81C355,-84.81 355,-114.65 355,-114.65"/>
<polygon fill="black" stroke="black" points="351.5,-114.65 355,-124.65 358.5,-114.65 351.5,-114.65"/>
</g>
<!-- FormsModule -->
<g id="node5" class="node">
<title>FormsModule</title>
<polygon fill="#8dd3c7" stroke="black" points="657.83,-84.8 654.83,-88.8 633.83,-88.8 630.83,-84.8 562.17,-84.8 562.17,-48.8 657.83,-48.8 657.83,-84.8"/>
<text text-anchor="middle" x="610" y="-62.6" font-family="Times,serif" font-size="14.00">FormsModule</text>
</g>
<!-- FormsModule&#45;&gt;AppModule -->
<g id="edge4" class="edge">
<title>FormsModule&#45;&gt;AppModule</title>
<path fill="none" stroke="black" d="M581.4,-84.83C581.4,-109.78 581.4,-151.8 581.4,-151.8 581.4,-151.8 406.79,-151.8 406.79,-151.8"/>
<polygon fill="black" stroke="black" points="406.79,-148.3 396.79,-151.8 406.79,-155.3 406.79,-148.3"/>
</g>
<!-- HomeModule -->
<g id="node21" class="node">
<title>HomeModule</title>
<polygon fill="#8dd3c7" stroke="black" points="2939.76,-228.8 2936.76,-232.8 2915.76,-232.8 2912.76,-228.8 2846.24,-228.8 2846.24,-192.8 2939.76,-192.8 2939.76,-228.8"/>
<text text-anchor="middle" x="2893" y="-206.6" font-family="Times,serif" font-size="14.00">HomeModule</text>
</g>
<!-- FormsModule&#45;&gt;HomeModule -->
<g id="edge24" class="edge">
<title>FormsModule&#45;&gt;HomeModule</title>
<path fill="none" stroke="black" d="M600.47,-84.92C600.47,-126.43 600.47,-224.8 600.47,-224.8 600.47,-224.8 2836.17,-224.8 2836.17,-224.8"/>
<polygon fill="black" stroke="black" points="2836.17,-228.3 2846.17,-224.8 2836.17,-221.3 2836.17,-228.3"/>
</g>
<!-- LoginModule -->
<g id="node27" class="node">
<title>LoginModule</title>
<polygon fill="#8dd3c7" stroke="black" points="876.49,-160.8 873.49,-164.8 852.49,-164.8 849.49,-160.8 783.51,-160.8 783.51,-124.8 876.49,-124.8 876.49,-160.8"/>
<text text-anchor="middle" x="830" y="-138.6" font-family="Times,serif" font-size="14.00">LoginModule</text>
</g>
<!-- FormsModule&#45;&gt;LoginModule -->
<g id="edge28" class="edge">
<title>FormsModule&#45;&gt;LoginModule</title>
<path fill="none" stroke="black" d="M638.6,-85.11C638.6,-104.95 638.6,-133.8 638.6,-133.8 638.6,-133.8 773.18,-133.8 773.18,-133.8"/>
<polygon fill="black" stroke="black" points="773.18,-137.3 783.18,-133.8 773.18,-130.3 773.18,-137.3"/>
</g>
<!-- RegisterModule -->
<g id="node39" class="node">
<title>RegisterModule</title>
<polygon fill="#8dd3c7" stroke="black" points="1573.2,-160.8 1570.2,-164.8 1549.2,-164.8 1546.2,-160.8 1466.8,-160.8 1466.8,-124.8 1573.2,-124.8 1573.2,-160.8"/>
<text text-anchor="middle" x="1520" y="-138.6" font-family="Times,serif" font-size="14.00">RegisterModule</text>
</g>
<!-- FormsModule&#45;&gt;RegisterModule -->
<g id="edge43" class="edge">
<title>FormsModule&#45;&gt;RegisterModule</title>
<path fill="none" stroke="black" d="M619.53,-85.08C619.53,-100.75 619.53,-120.8 619.53,-120.8 619.53,-120.8 1482.49,-120.8 1482.49,-120.8 1482.49,-120.8 1482.49,-121.18 1482.49,-121.18"/>
<polygon fill="black" stroke="black" points="1478.99,-114.63 1482.49,-124.63 1485.99,-114.63 1478.99,-114.63"/>
</g>
<!-- HttpClientModule -->
<g id="node6" class="node">
<title>HttpClientModule</title>
<polygon fill="#8dd3c7" stroke="black" points="272.16,-84.8 269.16,-88.8 248.16,-88.8 245.16,-84.8 153.84,-84.8 153.84,-48.8 272.16,-48.8 272.16,-84.8"/>
<text text-anchor="middle" x="213" y="-62.6" font-family="Times,serif" font-size="14.00">HttpClientModule</text>
</g>
<!-- HttpClientModule&#45;&gt;AppModule -->
<g id="edge5" class="edge">
<title>HttpClientModule&#45;&gt;AppModule</title>
<path fill="none" stroke="black" d="M213,-84.83C213,-105.57 213,-136.8 213,-136.8 213,-136.8 303.16,-136.8 303.16,-136.8"/>
<polygon fill="black" stroke="black" points="303.16,-140.3 313.16,-136.8 303.16,-133.3 303.16,-140.3"/>
</g>
<!-- HomeComponent -->
<g id="node8" class="node">
<title>HomeComponent</title>
<polygon fill="#ffffb3" stroke="black" points="3164.55,-160.8 3049.45,-160.8 3049.45,-124.8 3164.55,-124.8 3164.55,-160.8"/>
<text text-anchor="middle" x="3107" y="-138.6" font-family="Times,serif" font-size="14.00">HomeComponent</text>
</g>
<!-- HomeComponent&#45;&gt;HomeModule -->
<g id="edge7" class="edge">
<title>HomeComponent&#45;&gt;HomeModule</title>
<path fill="none" stroke="black" d="M3107,-161.08C3107,-176.75 3107,-196.8 3107,-196.8 3107,-196.8 2949.96,-196.8 2949.96,-196.8"/>
<polygon fill="black" stroke="black" points="2949.96,-193.3 2939.96,-196.8 2949.96,-200.3 2949.96,-193.3"/>
</g>
<!-- NavbarComponent -->
<g id="node9" class="node">
<title>NavbarComponent</title>
<polygon fill="#ffffb3" stroke="black" points="3031.03,-160.8 2908.97,-160.8 2908.97,-124.8 3031.03,-124.8 3031.03,-160.8"/>
<text text-anchor="middle" x="2970" y="-138.6" font-family="Times,serif" font-size="14.00">NavbarComponent</text>
</g>
<!-- NavbarComponent&#45;&gt;HomeModule -->
<g id="edge8" class="edge">
<title>NavbarComponent&#45;&gt;HomeModule</title>
<path fill="none" stroke="black" d="M2924.31,-161.02C2924.31,-161.02 2924.31,-182.53 2924.31,-182.53"/>
<polygon fill="black" stroke="black" points="2920.81,-182.53 2924.31,-192.53 2927.81,-182.53 2920.81,-182.53"/>
</g>
<!-- AddressBarComponent -->
<g id="node10" class="node">
<title>AddressBarComponent</title>
<polygon fill="#ffffb3" stroke="black" points="2890.92,-160.8 2743.08,-160.8 2743.08,-124.8 2890.92,-124.8 2890.92,-160.8"/>
<text text-anchor="middle" x="2817" y="-138.6" font-family="Times,serif" font-size="14.00">AddressBarComponent</text>
</g>
<!-- AddressBarComponent&#45;&gt;HomeModule -->
<g id="edge9" class="edge">
<title>AddressBarComponent&#45;&gt;HomeModule</title>
<path fill="none" stroke="black" d="M2868.41,-161.02C2868.41,-161.02 2868.41,-182.53 2868.41,-182.53"/>
<polygon fill="black" stroke="black" points="2864.91,-182.53 2868.41,-192.53 2871.91,-182.53 2864.91,-182.53"/>
</g>
<!-- BottomPopupComponent -->
<g id="node11" class="node">
<title>BottomPopupComponent</title>
<polygon fill="#ffffb3" stroke="black" points="2725.62,-160.8 2566.38,-160.8 2566.38,-124.8 2725.62,-124.8 2725.62,-160.8"/>
<text text-anchor="middle" x="2646" y="-138.6" font-family="Times,serif" font-size="14.00">BottomPopupComponent</text>
</g>
<!-- BottomPopupComponent&#45;&gt;HomeModule -->
<g id="edge10" class="edge">
<title>BottomPopupComponent&#45;&gt;HomeModule</title>
<path fill="none" stroke="black" d="M2646,-160.81C2646,-176.85 2646,-197.8 2646,-197.8 2646,-197.8 2835.96,-197.8 2835.96,-197.8"/>
<polygon fill="black" stroke="black" points="2835.96,-201.3 2845.96,-197.8 2835.96,-194.3 2835.96,-201.3"/>
</g>
<!-- BottomPopupInteractiveComponent -->
<g id="node12" class="node">
<title>BottomPopupInteractiveComponent</title>
<polygon fill="#ffffb3" stroke="black" points="2548.47,-160.8 2329.53,-160.8 2329.53,-124.8 2548.47,-124.8 2548.47,-160.8"/>
<text text-anchor="middle" x="2439" y="-138.6" font-family="Times,serif" font-size="14.00">BottomPopupInteractiveComponent</text>
</g>
<!-- BottomPopupInteractiveComponent&#45;&gt;HomeModule -->
<g id="edge11" class="edge">
<title>BottomPopupInteractiveComponent&#45;&gt;HomeModule</title>
<path fill="none" stroke="black" d="M2439,-160.82C2439,-178.17 2439,-201.8 2439,-201.8 2439,-201.8 2836.12,-201.8 2836.12,-201.8"/>
<polygon fill="black" stroke="black" points="2836.12,-205.3 2846.12,-201.8 2836.12,-198.3 2836.12,-205.3"/>
</g>
<!-- PopupErrorMessageComponent -->
<g id="node13" class="node">
<title>PopupErrorMessageComponent</title>
<polygon fill="#ffffb3" stroke="black" points="2311.63,-160.8 2116.37,-160.8 2116.37,-124.8 2311.63,-124.8 2311.63,-160.8"/>
<text text-anchor="middle" x="2214" y="-138.6" font-family="Times,serif" font-size="14.00">PopupErrorMessageComponent</text>
</g>
<!-- PopupErrorMessageComponent&#45;&gt;HomeModule -->
<g id="edge12" class="edge">
<title>PopupErrorMessageComponent&#45;&gt;HomeModule</title>
<path fill="none" stroke="black" d="M2214,-160.97C2214,-179.89 2214,-206.8 2214,-206.8 2214,-206.8 2836.06,-206.8 2836.06,-206.8"/>
<polygon fill="black" stroke="black" points="2836.06,-210.3 2846.06,-206.8 2836.06,-203.3 2836.06,-210.3"/>
</g>
<!-- AddFavoritesComponent -->
<g id="node14" class="node">
<title>AddFavoritesComponent</title>
<polygon fill="#ffffb3" stroke="black" points="4345.54,-160.8 4188.46,-160.8 4188.46,-124.8 4345.54,-124.8 4345.54,-160.8"/>
<text text-anchor="middle" x="4267" y="-138.6" font-family="Times,serif" font-size="14.00">AddFavoritesComponent</text>
</g>
<!-- AddFavoritesComponent&#45;&gt;HomeModule -->
<g id="edge13" class="edge">
<title>AddFavoritesComponent&#45;&gt;HomeModule</title>
<path fill="none" stroke="black" d="M4267,-161C4267,-185.16 4267,-224.8 4267,-224.8 4267,-224.8 2949.9,-224.8 2949.9,-224.8"/>
<polygon fill="black" stroke="black" points="2949.9,-221.3 2939.9,-224.8 2949.9,-228.3 2949.9,-221.3"/>
</g>
<!-- MessageComponent -->
<g id="node15" class="node">
<title>MessageComponent</title>
<polygon fill="#ffffb3" stroke="black" points="4170.31,-160.8 4039.69,-160.8 4039.69,-124.8 4170.31,-124.8 4170.31,-160.8"/>
<text text-anchor="middle" x="4105" y="-138.6" font-family="Times,serif" font-size="14.00">MessageComponent</text>
</g>
<!-- MessageComponent&#45;&gt;HomeModule -->
<g id="edge14" class="edge">
<title>MessageComponent&#45;&gt;HomeModule</title>
<path fill="none" stroke="black" d="M4105,-160.89C4105,-183.93 4105,-220.8 4105,-220.8 4105,-220.8 2949.77,-220.8 2949.77,-220.8"/>
<polygon fill="black" stroke="black" points="2949.77,-217.3 2939.77,-220.8 2949.77,-224.3 2949.77,-217.3"/>
</g>
<!-- FavoriteMessageComponent -->
<g id="node16" class="node">
<title>FavoriteMessageComponent</title>
<polygon fill="#ffffb3" stroke="black" points="4021.46,-160.8 3844.54,-160.8 3844.54,-124.8 4021.46,-124.8 4021.46,-160.8"/>
<text text-anchor="middle" x="3933" y="-138.6" font-family="Times,serif" font-size="14.00">FavoriteMessageComponent</text>
</g>
<!-- FavoriteMessageComponent&#45;&gt;HomeModule -->
<g id="edge15" class="edge">
<title>FavoriteMessageComponent&#45;&gt;HomeModule</title>
<path fill="none" stroke="black" d="M3933,-161.09C3933,-183.01 3933,-216.8 3933,-216.8 3933,-216.8 2950.05,-216.8 2950.05,-216.8"/>
<polygon fill="black" stroke="black" points="2950.05,-213.3 2940.05,-216.8 2950.05,-220.3 2950.05,-213.3"/>
</g>
<!-- MessageStandardComponent -->
<g id="node17" class="node">
<title>MessageStandardComponent</title>
<polygon fill="#ffffb3" stroke="black" points="3826.07,-160.8 3645.93,-160.8 3645.93,-124.8 3826.07,-124.8 3826.07,-160.8"/>
<text text-anchor="middle" x="3736" y="-138.6" font-family="Times,serif" font-size="14.00">MessageStandardComponent</text>
</g>
<!-- MessageStandardComponent&#45;&gt;HomeModule -->
<g id="edge16" class="edge">
<title>MessageStandardComponent&#45;&gt;HomeModule</title>
<path fill="none" stroke="black" d="M3736,-160.83C3736,-181.57 3736,-212.8 3736,-212.8 3736,-212.8 2949.83,-212.8 2949.83,-212.8"/>
<polygon fill="black" stroke="black" points="2949.83,-209.3 2939.83,-212.8 2949.83,-216.3 2949.83,-209.3"/>
</g>
<!-- BoderUserComponent -->
<g id="node18" class="node">
<title>BoderUserComponent</title>
<polygon fill="#ffffb3" stroke="black" points="3627.97,-160.8 3486.03,-160.8 3486.03,-124.8 3627.97,-124.8 3627.97,-160.8"/>
<text text-anchor="middle" x="3557" y="-138.6" font-family="Times,serif" font-size="14.00">BoderUserComponent</text>
</g>
<!-- BoderUserComponent&#45;&gt;HomeModule -->
<g id="edge17" class="edge">
<title>BoderUserComponent&#45;&gt;HomeModule</title>
<path fill="none" stroke="black" d="M3557,-160.83C3557,-180.38 3557,-208.8 3557,-208.8 3557,-208.8 2949.96,-208.8 2949.96,-208.8"/>
<polygon fill="black" stroke="black" points="2949.96,-205.3 2939.96,-208.8 2949.96,-212.3 2949.96,-205.3"/>
</g>
<!-- BoderAdminComponent -->
<g id="node19" class="node">
<title>BoderAdminComponent</title>
<polygon fill="#ffffb3" stroke="black" points="3468.43,-160.8 3313.57,-160.8 3313.57,-124.8 3468.43,-124.8 3468.43,-160.8"/>
<text text-anchor="middle" x="3391" y="-138.6" font-family="Times,serif" font-size="14.00">BoderAdminComponent</text>
</g>
<!-- BoderAdminComponent&#45;&gt;HomeModule -->
<g id="edge18" class="edge">
<title>BoderAdminComponent&#45;&gt;HomeModule</title>
<path fill="none" stroke="black" d="M3391,-161.07C3391,-179.36 3391,-204.8 3391,-204.8 3391,-204.8 2949.85,-204.8 2949.85,-204.8"/>
<polygon fill="black" stroke="black" points="2949.85,-201.3 2939.85,-204.8 2949.85,-208.3 2949.85,-201.3"/>
</g>
<!-- ProfilComponent -->
<g id="node20" class="node">
<title>ProfilComponent</title>
<polygon fill="#ffffb3" stroke="black" points="3295.72,-160.8 3182.28,-160.8 3182.28,-124.8 3295.72,-124.8 3295.72,-160.8"/>
<text text-anchor="middle" x="3239" y="-138.6" font-family="Times,serif" font-size="14.00">ProfilComponent</text>
</g>
<!-- ProfilComponent&#45;&gt;HomeModule -->
<g id="edge19" class="edge">
<title>ProfilComponent&#45;&gt;HomeModule</title>
<path fill="none" stroke="black" d="M3239,-160.83C3239,-177.86 3239,-200.8 3239,-200.8 3239,-200.8 2950.02,-200.8 2950.02,-200.8"/>
<polygon fill="black" stroke="black" points="2950.02,-197.3 2940.02,-200.8 2950.02,-204.3 2950.02,-197.3"/>
</g>
<!-- CommonModule -->
<g id="node22" class="node">
<title>CommonModule</title>
<polygon fill="#8dd3c7" stroke="black" points="1817.67,-84.8 1814.67,-88.8 1793.67,-88.8 1790.67,-84.8 1706.33,-84.8 1706.33,-48.8 1817.67,-48.8 1817.67,-84.8"/>
<text text-anchor="middle" x="1762" y="-62.6" font-family="Times,serif" font-size="14.00">CommonModule</text>
</g>
<!-- CommonModule&#45;&gt;HomeModule -->
<g id="edge20" class="edge">
<title>CommonModule&#45;&gt;HomeModule</title>
<path fill="none" stroke="black" d="M1773.17,-84.95C1773.17,-125.48 1773.17,-219.8 1773.17,-219.8 1773.17,-219.8 2835.95,-219.8 2835.95,-219.8"/>
<polygon fill="black" stroke="black" points="2835.95,-223.3 2845.95,-219.8 2835.95,-216.3 2835.95,-223.3"/>
</g>
<!-- MapModule -->
<g id="node25" class="node">
<title>MapModule</title>
<polygon fill="#8dd3c7" stroke="black" points="2091.71,-160.8 2088.71,-164.8 2067.71,-164.8 2064.71,-160.8 2006.29,-160.8 2006.29,-124.8 2091.71,-124.8 2091.71,-160.8"/>
<text text-anchor="middle" x="2049" y="-138.6" font-family="Times,serif" font-size="14.00">MapModule</text>
</g>
<!-- CommonModule&#45;&gt;MapModule -->
<g id="edge35" class="edge">
<title>CommonModule&#45;&gt;MapModule</title>
<path fill="none" stroke="black" d="M1795.5,-84.83C1795.5,-105.57 1795.5,-136.8 1795.5,-136.8 1795.5,-136.8 1996.28,-136.8 1996.28,-136.8"/>
<polygon fill="black" stroke="black" points="1996.28,-140.3 2006.28,-136.8 1996.28,-133.3 1996.28,-140.3"/>
</g>
<!-- CommonModule&#45;&gt;LoginModule -->
<g id="edge26" class="edge">
<title>CommonModule&#45;&gt;LoginModule</title>
<path fill="none" stroke="black" d="M1728.5,-84.85C1728.5,-99.17 1728.5,-116.8 1728.5,-116.8 1728.5,-116.8 862.98,-116.8 862.98,-116.8 862.98,-116.8 862.98,-117.59 862.98,-117.59"/>
<polygon fill="black" stroke="black" points="859.48,-114.74 862.98,-124.74 866.48,-114.74 859.48,-114.74"/>
</g>
<!-- CommonModule&#45;&gt;RegisterModule -->
<g id="edge41" class="edge">
<title>CommonModule&#45;&gt;RegisterModule</title>
<path fill="none" stroke="black" d="M1750.83,-85C1750.83,-109.16 1750.83,-148.8 1750.83,-148.8 1750.83,-148.8 1583.25,-148.8 1583.25,-148.8"/>
<polygon fill="black" stroke="black" points="1583.25,-145.3 1573.25,-148.8 1583.25,-152.3 1583.25,-145.3"/>
</g>
<!-- HomeRoutingModule -->
<g id="node23" class="node">
<title>HomeRoutingModule</title>
<polygon fill="#8dd3c7" stroke="black" points="1974.38,-84.8 1971.38,-88.8 1950.38,-88.8 1947.38,-84.8 1835.62,-84.8 1835.62,-48.8 1974.38,-48.8 1974.38,-84.8"/>
<text text-anchor="middle" x="1905" y="-62.6" font-family="Times,serif" font-size="14.00">HomeRoutingModule</text>
</g>
<!-- HomeRoutingModule&#45;&gt;HomeModule -->
<g id="edge21" class="edge">
<title>HomeRoutingModule&#45;&gt;HomeModule</title>
<path fill="none" stroke="black" d="M1905,-85.07C1905,-124.86 1905,-215.8 1905,-215.8 1905,-215.8 2836.01,-215.8 2836.01,-215.8"/>
<polygon fill="black" stroke="black" points="2836.01,-219.3 2846.01,-215.8 2836.01,-212.3 2836.01,-219.3"/>
</g>
<!-- LeafletModule -->
<g id="node24" class="node">
<title>LeafletModule</title>
<polygon fill="#8dd3c7" stroke="black" points="2091.69,-84.8 2088.69,-88.8 2067.69,-88.8 2064.69,-84.8 1992.31,-84.8 1992.31,-48.8 2091.69,-48.8 2091.69,-84.8"/>
<text text-anchor="middle" x="2042" y="-62.6" font-family="Times,serif" font-size="14.00">LeafletModule</text>
</g>
<!-- LeafletModule&#45;&gt;HomeModule -->
<g id="edge22" class="edge">
<title>LeafletModule&#45;&gt;HomeModule</title>
<path fill="none" stroke="black" d="M2091.82,-72.8C2274.88,-72.8 2899.72,-72.8 2899.72,-72.8 2899.72,-72.8 2899.72,-182.76 2899.72,-182.76"/>
<polygon fill="black" stroke="black" points="2896.22,-182.76 2899.72,-192.76 2903.22,-182.76 2896.22,-182.76"/>
</g>
<!-- LeafletModule&#45;&gt;MapModule -->
<g id="edge36" class="edge">
<title>LeafletModule&#45;&gt;MapModule</title>
<path fill="none" stroke="black" d="M2017.05,-84.81C2017.05,-84.81 2017.05,-114.65 2017.05,-114.65"/>
<polygon fill="black" stroke="black" points="2013.55,-114.65 2017.05,-124.65 2020.55,-114.65 2013.55,-114.65"/>
</g>
<!-- MapModule&#45;&gt;HomeModule -->
<g id="edge23" class="edge">
<title>MapModule&#45;&gt;HomeModule</title>
<path fill="none" stroke="black" d="M2049,-161.02C2049,-181.17 2049,-210.8 2049,-210.8 2049,-210.8 2836.12,-210.8 2836.12,-210.8"/>
<polygon fill="black" stroke="black" points="2836.12,-214.3 2846.12,-210.8 2836.12,-207.3 2836.12,-214.3"/>
</g>
<!-- MapComponent  -->
<g id="node36" class="node">
<title>MapComponent </title>
<polygon fill="#fb8072" stroke="black" points="4648.49,-84.8 4537.51,-84.8 4537.51,-48.8 4648.49,-48.8 4648.49,-84.8"/>
<text text-anchor="middle" x="4593" y="-62.6" font-family="Times,serif" font-size="14.00">MapComponent </text>
</g>
<!-- MapModule&#45;&gt;MapComponent  -->
<g id="edge38" class="edge">
<title>MapModule&#45;&gt;MapComponent </title>
<path fill="none" stroke="black" stroke-dasharray="5,2" d="M2080.94,-124.56C2080.94,-109.23 2080.94,-89.8 2080.94,-89.8 2080.94,-89.8 4593,-89.8 4593,-89.8 4593,-89.8 4593,-89.31 4593,-89.31"/>
<polygon fill="black" stroke="black" points="4596.5,-94.92 4593,-84.92 4589.5,-94.92 4596.5,-94.92"/>
</g>
<!-- ItineraryComponent  -->
<g id="node37" class="node">
<title>ItineraryComponent </title>
<polygon fill="#fb8072" stroke="black" points="4519.52,-84.8 4386.48,-84.8 4386.48,-48.8 4519.52,-48.8 4519.52,-84.8"/>
<text text-anchor="middle" x="4453" y="-62.6" font-family="Times,serif" font-size="14.00">ItineraryComponent </text>
</g>
<!-- MapModule&#45;&gt;ItineraryComponent  -->
<g id="edge39" class="edge">
<title>MapModule&#45;&gt;ItineraryComponent </title>
<path fill="none" stroke="black" stroke-dasharray="5,2" d="M2091.71,-142.8C2098.8,-142.8 2103.9,-142.8 2103.9,-142.8 2103.9,-142.8 2103.9,-60.8 2103.9,-60.8 2103.9,-60.8 4376.48,-60.8 4376.48,-60.8"/>
<polygon fill="black" stroke="black" points="4376.48,-64.3 4386.48,-60.8 4376.48,-57.3 4376.48,-64.3"/>
</g>
<!-- LoginComponent -->
<g id="node26" class="node">
<title>LoginComponent</title>
<polygon fill="#ffffb3" stroke="black" points="812.28,-84.8 697.72,-84.8 697.72,-48.8 812.28,-48.8 812.28,-84.8"/>
<text text-anchor="middle" x="755" y="-62.6" font-family="Times,serif" font-size="14.00">LoginComponent</text>
</g>
<!-- LoginComponent&#45;&gt;LoginModule -->
<g id="edge25" class="edge">
<title>LoginComponent&#45;&gt;LoginModule</title>
<path fill="none" stroke="black" d="M797.95,-84.81C797.95,-84.81 797.95,-114.65 797.95,-114.65"/>
<polygon fill="black" stroke="black" points="794.45,-114.65 797.95,-124.65 801.45,-114.65 794.45,-114.65"/>
</g>
<!-- LoginRoutingModule -->
<g id="node28" class="node">
<title>LoginRoutingModule</title>
<polygon fill="#8dd3c7" stroke="black" points="974.11,-84.8 971.11,-88.8 950.11,-88.8 947.11,-84.8 835.89,-84.8 835.89,-48.8 974.11,-48.8 974.11,-84.8"/>
<text text-anchor="middle" x="905" y="-62.6" font-family="Times,serif" font-size="14.00">LoginRoutingModule</text>
</g>
<!-- LoginRoutingModule&#45;&gt;LoginModule -->
<g id="edge27" class="edge">
<title>LoginRoutingModule&#45;&gt;LoginModule</title>
<path fill="none" stroke="black" d="M849.46,-84.81C849.46,-84.81 849.46,-114.65 849.46,-114.65"/>
<polygon fill="black" stroke="black" points="845.96,-114.65 849.46,-124.65 852.96,-114.65 845.96,-114.65"/>
</g>
<!-- RouterModule  -->
<g id="node30" class="node">
<title>RouterModule </title>
<polygon fill="#fb8072" stroke="black" points="1115.65,-160.8 1014.35,-160.8 1014.35,-124.8 1115.65,-124.8 1115.65,-160.8"/>
<text text-anchor="middle" x="1065" y="-138.6" font-family="Times,serif" font-size="14.00">RouterModule </text>
</g>
<!-- LoginRoutingModule&#45;&gt;RouterModule  -->
<g id="edge30" class="edge">
<title>LoginRoutingModule&#45;&gt;RouterModule </title>
<path fill="none" stroke="black" stroke-dasharray="5,2" d="M925.28,-84.81C925.28,-107.29 925.28,-142.8 925.28,-142.8 925.28,-142.8 1004.16,-142.8 1004.16,-142.8"/>
<polygon fill="black" stroke="black" points="1004.16,-146.3 1014.16,-142.8 1004.16,-139.3 1004.16,-146.3"/>
</g>
<!-- RouterModule.forChild(args) -->
<g id="node29" class="node">
<title>RouterModule.forChild(args)</title>
<polygon fill="#8dd3c7" stroke="black" points="1321.73,-160.8 1318.73,-164.8 1297.73,-164.8 1294.73,-160.8 1140.27,-160.8 1140.27,-124.8 1321.73,-124.8 1321.73,-160.8"/>
<text text-anchor="middle" x="1231" y="-138.6" font-family="Times,serif" font-size="14.00">RouterModule.forChild(args)</text>
</g>
<!-- RouterModule.forChild(args)&#45;&gt;LoginRoutingModule -->
<g id="edge29" class="edge">
<title>RouterModule.forChild(args)&#45;&gt;LoginRoutingModule</title>
<path fill="none" stroke="black" d="M1231,-124.77C1231,-104.03 1231,-72.8 1231,-72.8 1231,-72.8 984.14,-72.8 984.14,-72.8"/>
<polygon fill="black" stroke="black" points="984.14,-69.3 974.14,-72.8 984.14,-76.3 984.14,-69.3"/>
</g>
<!-- RegisterRoutingModule -->
<g id="node40" class="node">
<title>RegisterRoutingModule</title>
<polygon fill="#8dd3c7" stroke="black" points="1513.82,-84.8 1510.82,-88.8 1489.82,-88.8 1486.82,-84.8 1362.18,-84.8 1362.18,-48.8 1513.82,-48.8 1513.82,-84.8"/>
<text text-anchor="middle" x="1438" y="-62.6" font-family="Times,serif" font-size="14.00">RegisterRoutingModule</text>
</g>
<!-- RouterModule.forChild(args)&#45;&gt;RegisterRoutingModule -->
<g id="edge44" class="edge">
<title>RouterModule.forChild(args)&#45;&gt;RegisterRoutingModule</title>
<path fill="none" stroke="black" d="M1321.73,-142.8C1367.99,-142.8 1414.62,-142.8 1414.62,-142.8 1414.62,-142.8 1414.62,-94.81 1414.62,-94.81"/>
<polygon fill="black" stroke="black" points="1418.12,-94.81 1414.62,-84.81 1411.12,-94.81 1418.12,-94.81"/>
</g>
<!-- MapComponent -->
<g id="node31" class="node">
<title>MapComponent</title>
<polygon fill="#ffffb3" stroke="black" points="5080.49,-84.8 4973.51,-84.8 4973.51,-48.8 5080.49,-48.8 5080.49,-84.8"/>
<text text-anchor="middle" x="5027" y="-62.6" font-family="Times,serif" font-size="14.00">MapComponent</text>
</g>
<!-- MapComponent&#45;&gt;MapModule -->
<g id="edge31" class="edge">
<title>MapComponent&#45;&gt;MapModule</title>
<path fill="none" stroke="black" d="M5027,-85.22C5027,-94.08 5027,-102.8 5027,-102.8 5027,-102.8 2048.99,-102.8 2048.99,-102.8 2048.99,-102.8 2048.99,-114.67 2048.99,-114.67"/>
<polygon fill="black" stroke="black" points="2045.49,-114.67 2048.99,-124.67 2052.49,-114.67 2045.49,-114.67"/>
</g>
<!-- ItineraryComponent -->
<g id="node32" class="node">
<title>ItineraryComponent</title>
<polygon fill="#ffffb3" stroke="black" points="4955.53,-84.8 4826.47,-84.8 4826.47,-48.8 4955.53,-48.8 4955.53,-84.8"/>
<text text-anchor="middle" x="4891" y="-62.6" font-family="Times,serif" font-size="14.00">ItineraryComponent</text>
</g>
<!-- ItineraryComponent&#45;&gt;MapModule -->
<g id="edge32" class="edge">
<title>ItineraryComponent&#45;&gt;MapModule</title>
<path fill="none" stroke="black" d="M4891,-85.04C4891,-92.23 4891,-98.8 4891,-98.8 4891,-98.8 2038.34,-98.8 2038.34,-98.8 2038.34,-98.8 2038.34,-114.65 2038.34,-114.65"/>
<polygon fill="black" stroke="black" points="2034.85,-114.65 2038.34,-124.65 2041.85,-114.65 2034.85,-114.65"/>
</g>
<!-- ParkingsComponent -->
<g id="node33" class="node">
<title>ParkingsComponent</title>
<polygon fill="#ffffb3" stroke="black" points="5372.33,-84.8 5241.67,-84.8 5241.67,-48.8 5372.33,-48.8 5372.33,-84.8"/>
<text text-anchor="middle" x="5307" y="-62.6" font-family="Times,serif" font-size="14.00">ParkingsComponent</text>
</g>
<!-- ParkingsComponent&#45;&gt;MapModule -->
<g id="edge33" class="edge">
<title>ParkingsComponent&#45;&gt;MapModule</title>
<path fill="none" stroke="black" d="M5307,-84.84C5307,-97.36 5307,-111.8 5307,-111.8 5307,-111.8 2070.29,-111.8 2070.29,-111.8 2070.29,-111.8 2070.29,-114.77 2070.29,-114.77"/>
<polygon fill="black" stroke="black" points="2066.79,-114.77 2070.29,-124.77 2073.79,-114.77 2066.79,-114.77"/>
</g>
<!-- ParkingComponent -->
<g id="node34" class="node">
<title>ParkingComponent</title>
<polygon fill="#ffffb3" stroke="black" points="5223.38,-84.8 5098.62,-84.8 5098.62,-48.8 5223.38,-48.8 5223.38,-84.8"/>
<text text-anchor="middle" x="5161" y="-62.6" font-family="Times,serif" font-size="14.00">ParkingComponent</text>
</g>
<!-- ParkingComponent&#45;&gt;MapModule -->
<g id="edge34" class="edge">
<title>ParkingComponent&#45;&gt;MapModule</title>
<path fill="none" stroke="black" d="M5161,-84.9C5161,-95.89 5161,-107.8 5161,-107.8 5161,-107.8 2059.64,-107.8 2059.64,-107.8 2059.64,-107.8 2059.64,-114.48 2059.64,-114.48"/>
<polygon fill="black" stroke="black" points="2056.14,-114.48 2059.64,-124.48 2063.14,-114.48 2056.14,-114.48"/>
</g>
<!-- MapRoutingModule -->
<g id="node35" class="node">
<title>MapRoutingModule</title>
<polygon fill="#8dd3c7" stroke="black" points="4802.33,-84.8 4799.33,-88.8 4778.33,-88.8 4775.33,-84.8 4671.67,-84.8 4671.67,-48.8 4802.33,-48.8 4802.33,-84.8"/>
<text text-anchor="middle" x="4737" y="-62.6" font-family="Times,serif" font-size="14.00">MapRoutingModule</text>
</g>
<!-- MapRoutingModule&#45;&gt;MapModule -->
<g id="edge37" class="edge">
<title>MapRoutingModule&#45;&gt;MapModule</title>
<path fill="none" stroke="black" d="M4737,-84.96C4737,-89.84 4737,-93.8 4737,-93.8 4737,-93.8 2027.7,-93.8 2027.7,-93.8 2027.7,-93.8 2027.7,-114.55 2027.7,-114.55"/>
<polygon fill="black" stroke="black" points="2024.2,-114.55 2027.7,-124.55 2031.2,-114.55 2024.2,-114.55"/>
</g>
<!-- RegisterComponent -->
<g id="node38" class="node">
<title>RegisterComponent</title>
<polygon fill="#ffffb3" stroke="black" points="1665.98,-84.8 1538.02,-84.8 1538.02,-48.8 1665.98,-48.8 1665.98,-84.8"/>
<text text-anchor="middle" x="1602" y="-62.6" font-family="Times,serif" font-size="14.00">RegisterComponent</text>
</g>
<!-- RegisterComponent&#45;&gt;RegisterModule -->
<g id="edge40" class="edge">
<title>RegisterComponent&#45;&gt;RegisterModule</title>
<path fill="none" stroke="black" d="M1555.55,-84.81C1555.55,-84.81 1555.55,-114.65 1555.55,-114.65"/>
<polygon fill="black" stroke="black" points="1552.05,-114.65 1555.55,-124.65 1559.05,-114.65 1552.05,-114.65"/>
</g>
<!-- RegisterRoutingModule&#45;&gt;RouterModule  -->
<g id="edge45" class="edge">
<title>RegisterRoutingModule&#45;&gt;RouterModule </title>
<path fill="none" stroke="black" stroke-dasharray="5,2" d="M1362.07,-60.8C1253.01,-60.8 1065,-60.8 1065,-60.8 1065,-60.8 1065,-114.6 1065,-114.6"/>
<polygon fill="black" stroke="black" points="1061.5,-114.6 1065,-124.6 1068.5,-114.6 1061.5,-114.6"/>
</g>
<!-- RegisterRoutingModule&#45;&gt;RegisterModule -->
<g id="edge42" class="edge">
<title>RegisterRoutingModule&#45;&gt;RegisterModule</title>
<path fill="none" stroke="black" d="M1498.07,-84.81C1498.07,-84.81 1498.07,-114.65 1498.07,-114.65"/>
<polygon fill="black" stroke="black" points="1494.57,-114.65 1498.07,-124.65 1501.57,-114.65 1494.57,-114.65"/>
</g>
</g>
</svg>
