<?xml version="1.0" encoding="UTF-8" standalone="no"?>
<!DOCTYPE svg PUBLIC "-//W3C//DTD SVG 1.1//EN"
 "http://www.w3.org/Graphics/SVG/1.1/DTD/svg11.dtd">
<!-- Generated by graphviz version 2.47.3 (20210619.1520)
 -->
<!-- Title: dependencies Pages: 1 -->
<svg width="576pt" height="174pt"
 viewBox="0.00 0.00 576.00 173.80" xmlns="http://www.w3.org/2000/svg" xmlns:xlink="http://www.w3.org/1999/xlink">
<g id="graph0" class="graph" transform="scale(1 1) rotate(0) translate(4 169.8)">
<title>dependencies</title>
<polygon fill="white" stroke="transparent" points="-4,4 -4,-169.8 572,-169.8 572,4 -4,4"/>
<text text-anchor="middle" x="284" y="-8.2" font-family="sans-serif" font-size="14.00">dependencies</text>
<g id="clust1" class="cluster">
<title>cluster_LoginModule</title>
<polygon fill="none" stroke="black" stroke-dasharray="1,5" points="8,-32.8 8,-157.8 560,-157.8 560,-32.8 8,-32.8"/>
</g>
<g id="clust4" class="cluster">
<title>cluster_LoginModule_imports</title>
<polygon fill="none" stroke="black" points="154,-40.8 154,-92.8 552,-92.8 552,-40.8 154,-40.8"/>
</g>
<g id="clust2" class="cluster">
<title>cluster_LoginModule_declarations</title>
<polygon fill="none" stroke="black" points="16,-40.8 16,-92.8 146,-92.8 146,-40.8 16,-40.8"/>
</g>
<!-- LoginComponent -->
<g id="node1" class="node">
<title>LoginComponent</title>
<polygon fill="#ffffb3" stroke="black" points="138.28,-84.8 23.72,-84.8 23.72,-48.8 138.28,-48.8 138.28,-84.8"/>
<text text-anchor="middle" x="81" y="-62.6" font-family="Times,serif" font-size="14.00">LoginComponent</text>
</g>
<!-- LoginModule -->
<g id="node2" class="node">
<title>LoginModule</title>
<polygon fill="#8dd3c7" stroke="black" points="323.49,-149.8 320.49,-153.8 299.49,-153.8 296.49,-149.8 230.51,-149.8 230.51,-113.8 323.49,-113.8 323.49,-149.8"/>
<text text-anchor="middle" x="277" y="-127.6" font-family="Times,serif" font-size="14.00">LoginModule</text>
</g>
<!-- LoginComponent&#45;&gt;LoginModule -->
<g id="edge1" class="edge">
<title>LoginComponent&#45;&gt;LoginModule</title>
<path fill="none" stroke="black" d="M81,-84.91C81,-104.14 81,-131.8 81,-131.8 81,-131.8 220.05,-131.8 220.05,-131.8"/>
<polygon fill="black" stroke="black" points="220.05,-135.3 230.05,-131.8 220.05,-128.3 220.05,-135.3"/>
</g>
<!-- CommonModule -->
<g id="node3" class="node">
<title>CommonModule</title>
<polygon fill="#8dd3c7" stroke="black" points="543.67,-84.8 540.67,-88.8 519.67,-88.8 516.67,-84.8 432.33,-84.8 432.33,-48.8 543.67,-48.8 543.67,-84.8"/>
<text text-anchor="middle" x="488" y="-62.6" font-family="Times,serif" font-size="14.00">CommonModule</text>
</g>
<!-- CommonModule&#45;&gt;LoginModule -->
<g id="edge2" class="edge">
<title>CommonModule&#45;&gt;LoginModule</title>
<path fill="none" stroke="black" d="M488,-84.91C488,-104.14 488,-131.8 488,-131.8 488,-131.8 333.57,-131.8 333.57,-131.8"/>
<polygon fill="black" stroke="black" points="333.57,-128.3 323.57,-131.8 333.57,-135.3 333.57,-128.3"/>
</g>
<!-- LoginRoutingModule -->
<g id="node4" class="node">
<title>LoginRoutingModule</title>
<polygon fill="#8dd3c7" stroke="black" points="414.11,-84.8 411.11,-88.8 390.11,-88.8 387.11,-84.8 275.89,-84.8 275.89,-48.8 414.11,-48.8 414.11,-84.8"/>
<text text-anchor="middle" x="345" y="-62.6" font-family="Times,serif" font-size="14.00">LoginRoutingModule</text>
</g>
<!-- LoginRoutingModule&#45;&gt;LoginModule -->
<g id="edge3" class="edge">
<title>LoginRoutingModule&#45;&gt;LoginModule</title>
<path fill="none" stroke="black" d="M299.72,-84.91C299.72,-84.91 299.72,-103.79 299.72,-103.79"/>
<polygon fill="black" stroke="black" points="296.22,-103.79 299.72,-113.79 303.22,-103.79 296.22,-103.79"/>
</g>
<!-- FormsModule -->
<g id="node5" class="node">
<title>FormsModule</title>
<polygon fill="#8dd3c7" stroke="black" points="257.83,-84.8 254.83,-88.8 233.83,-88.8 230.83,-84.8 162.17,-84.8 162.17,-48.8 257.83,-48.8 257.83,-84.8"/>
<text text-anchor="middle" x="210" y="-62.6" font-family="Times,serif" font-size="14.00">FormsModule</text>
</g>
<!-- FormsModule&#45;&gt;LoginModule -->
<g id="edge4" class="edge">
<title>FormsModule&#45;&gt;LoginModule</title>
<path fill="none" stroke="black" d="M244.08,-84.91C244.08,-84.91 244.08,-103.79 244.08,-103.79"/>
<polygon fill="black" stroke="black" points="240.58,-103.79 244.08,-113.79 247.58,-103.79 240.58,-103.79"/>
</g>
</g>
</svg>
