<?xml version="1.0" encoding="UTF-8" standalone="no"?>
<!DOCTYPE svg PUBLIC "-//W3C//DTD SVG 1.1//EN"
 "http://www.w3.org/Graphics/SVG/1.1/DTD/svg11.dtd">
<!-- Generated by graphviz version 2.47.3 (20210619.1520)
 -->
<!-- Title: dependencies Pages: 1 -->
<svg width="689pt" height="247pt"
 viewBox="0.00 0.00 689.00 246.80" xmlns="http://www.w3.org/2000/svg" xmlns:xlink="http://www.w3.org/1999/xlink">
<g id="graph0" class="graph" transform="scale(1 1) rotate(0) translate(4 242.8)">
<title>dependencies</title>
<polygon fill="white" stroke="transparent" points="-4,4 -4,-242.8 685,-242.8 685,4 -4,4"/>
<text text-anchor="middle" x="340.5" y="-8.2" font-family="sans-serif" font-size="14.00">dependencies</text>
<g id="clust1" class="cluster">
<title>cluster_AppModule</title>
<polygon fill="none" stroke="black" stroke-dasharray="1,5" points="8,-32.8 8,-230.8 673,-230.8 673,-32.8 8,-32.8"/>
</g>
<g id="clust6" class="cluster">
<title>cluster_AppModule_bootstrap</title>
<polygon fill="none" stroke="black" points="276,-170.8 276,-222.8 400,-222.8 400,-170.8 276,-170.8"/>
</g>
<g id="clust4" class="cluster">
<title>cluster_AppModule_imports</title>
<polygon fill="none" stroke="black" points="146,-40.8 146,-92.8 665,-92.8 665,-40.8 146,-40.8"/>
</g>
<g id="clust2" class="cluster">
<title>cluster_AppModule_declarations</title>
<polygon fill="none" stroke="black" points="16,-40.8 16,-92.8 138,-92.8 138,-40.8 16,-40.8"/>
</g>
<!-- AppComponent -->
<g id="node1" class="node">
<title>AppComponent</title>
<polygon fill="#ffffb3" stroke="black" points="129.94,-84.8 24.06,-84.8 24.06,-48.8 129.94,-48.8 129.94,-84.8"/>
<text text-anchor="middle" x="77" y="-62.6" font-family="Times,serif" font-size="14.00">AppComponent</text>
</g>
<!-- AppModule -->
<g id="node2" class="node">
<title>AppModule</title>
<polygon fill="#8dd3c7" stroke="black" points="379.66,-149.8 376.66,-153.8 355.66,-153.8 352.66,-149.8 296.34,-149.8 296.34,-113.8 379.66,-113.8 379.66,-149.8"/>
<text text-anchor="middle" x="338" y="-127.6" font-family="Times,serif" font-size="14.00">AppModule</text>
</g>
<!-- AppComponent&#45;&gt;AppModule -->
<g id="edge1" class="edge">
<title>AppComponent&#45;&gt;AppModule</title>
<path fill="none" stroke="black" d="M77,-85.08C77,-106.12 77,-137.8 77,-137.8 77,-137.8 286.07,-137.8 286.07,-137.8"/>
<polygon fill="black" stroke="black" points="286.07,-141.3 296.07,-137.8 286.07,-134.3 286.07,-141.3"/>
</g>
<!-- AppComponent  -->
<g id="node7" class="node">
<title>AppComponent </title>
<polygon fill="#80b1d3" stroke="black" points="392.44,-214.8 283.56,-214.8 283.56,-178.8 392.44,-178.8 392.44,-214.8"/>
<text text-anchor="middle" x="338" y="-192.6" font-family="Times,serif" font-size="14.00">AppComponent </text>
</g>
<!-- AppModule&#45;&gt;AppComponent  -->
<g id="edge6" class="edge">
<title>AppModule&#45;&gt;AppComponent </title>
<path fill="none" stroke="black" stroke-dasharray="1,5" d="M338,-149.91C338,-149.91 338,-168.79 338,-168.79"/>
<polygon fill="black" stroke="black" points="334.5,-168.79 338,-178.79 341.5,-168.79 334.5,-168.79"/>
</g>
<!-- BrowserModule -->
<g id="node3" class="node">
<title>BrowserModule</title>
<polygon fill="#8dd3c7" stroke="black" points="657.47,-84.8 654.47,-88.8 633.47,-88.8 630.47,-84.8 550.53,-84.8 550.53,-48.8 657.47,-48.8 657.47,-84.8"/>
<text text-anchor="middle" x="604" y="-62.6" font-family="Times,serif" font-size="14.00">BrowserModule</text>
</g>
<!-- BrowserModule&#45;&gt;AppModule -->
<g id="edge2" class="edge">
<title>BrowserModule&#45;&gt;AppModule</title>
<path fill="none" stroke="black" d="M604,-85.08C604,-106.12 604,-137.8 604,-137.8 604,-137.8 389.86,-137.8 389.86,-137.8"/>
<polygon fill="black" stroke="black" points="389.86,-134.3 379.86,-137.8 389.86,-141.3 389.86,-134.3"/>
</g>
<!-- AppRoutingModule -->
<g id="node4" class="node">
<title>AppRoutingModule</title>
<polygon fill="#8dd3c7" stroke="black" points="532.27,-84.8 529.27,-88.8 508.27,-88.8 505.27,-84.8 403.73,-84.8 403.73,-48.8 532.27,-48.8 532.27,-84.8"/>
<text text-anchor="middle" x="468" y="-62.6" font-family="Times,serif" font-size="14.00">AppRoutingModule</text>
</g>
<!-- AppRoutingModule&#45;&gt;AppModule -->
<g id="edge3" class="edge">
<title>AppRoutingModule&#45;&gt;AppModule</title>
<path fill="none" stroke="black" d="M468,-84.82C468,-102.17 468,-125.8 468,-125.8 468,-125.8 389.85,-125.8 389.85,-125.8"/>
<polygon fill="black" stroke="black" points="389.85,-122.3 379.85,-125.8 389.85,-129.3 389.85,-122.3"/>
</g>
<!-- FormsModule -->
<g id="node5" class="node">
<title>FormsModule</title>
<polygon fill="#8dd3c7" stroke="black" points="385.83,-84.8 382.83,-88.8 361.83,-88.8 358.83,-84.8 290.17,-84.8 290.17,-48.8 385.83,-48.8 385.83,-84.8"/>
<text text-anchor="middle" x="338" y="-62.6" font-family="Times,serif" font-size="14.00">FormsModule</text>
</g>
<!-- FormsModule&#45;&gt;AppModule -->
<g id="edge4" class="edge">
<title>FormsModule&#45;&gt;AppModule</title>
<path fill="none" stroke="black" d="M338,-84.91C338,-84.91 338,-103.79 338,-103.79"/>
<polygon fill="black" stroke="black" points="334.5,-103.79 338,-113.79 341.5,-103.79 334.5,-103.79"/>
</g>
<!-- HttpClientModule -->
<g id="node6" class="node">
<title>HttpClientModule</title>
<polygon fill="#8dd3c7" stroke="black" points="272.16,-84.8 269.16,-88.8 248.16,-88.8 245.16,-84.8 153.84,-84.8 153.84,-48.8 272.16,-48.8 272.16,-84.8"/>
<text text-anchor="middle" x="213" y="-62.6" font-family="Times,serif" font-size="14.00">HttpClientModule</text>
</g>
<!-- HttpClientModule&#45;&gt;AppModule -->
<g id="edge5" class="edge">
<title>HttpClientModule&#45;&gt;AppModule</title>
<path fill="none" stroke="black" d="M213,-84.82C213,-102.17 213,-125.8 213,-125.8 213,-125.8 286.03,-125.8 286.03,-125.8"/>
<polygon fill="black" stroke="black" points="286.03,-129.3 296.03,-125.8 286.03,-122.3 286.03,-129.3"/>
</g>
</g>
</svg>
