<svg id="Calque_1" data-name="Calque 1" xmlns="http://www.w3.org/2000/svg" xmlns:xlink="http://www.w3.org/1999/xlink" viewBox="0 0 185.71 227.36"><defs><style>.cls-1{fill:#88cff4;}.cls-2{fill:#0c79b4;}.cls-3{fill:url(#Orange_Jaune);}.cls-4{fill:url(#Dégradé_sans_nom_2);}.cls-5{fill:url(#Orange_Jaune-2);}.cls-6{fill:#e6d000;}.cls-7{fill:url(#Orange_Jaune-3);}.cls-8{fill:url(#Dégradé_sans_nom_3);}.cls-9{fill:#fecb37;}.cls-10{fill:url(#Orange_Jaune-4);}.cls-11{fill:#4f9634;}.cls-12{fill:#fff;}</style><linearGradient id="Orange_Jaune" x1="-1.75" y1="87.68" x2="28.47" y2="87.68" gradientUnits="userSpaceOnUse"><stop offset="0" stop-color="#ffef26"/><stop offset="0.02" stop-color="#ffea21"/><stop offset="0.1" stop-color="#fed70f"/><stop offset="0.19" stop-color="#fdcc04"/><stop offset="0.28" stop-color="#fdc800"/><stop offset="0.67" stop-color="#f18f34"/><stop offset="0.89" stop-color="#e95f32"/><stop offset="1" stop-color="#e3312d"/></linearGradient><linearGradient id="Dégradé_sans_nom_2" x1="154.73" y1="82.71" x2="184.67" y2="82.71" gradientUnits="userSpaceOnUse"><stop offset="0" stop-color="#fff"/><stop offset="1"/></linearGradient><linearGradient id="Orange_Jaune-2" x1="153.33" y1="82.7" x2="186.08" y2="82.7" xlink:href="#Orange_Jaune"/><linearGradient id="Orange_Jaune-3" x1="88.49" y1="23.42" x2="99.2" y2="23.42" xlink:href="#Orange_Jaune"/><linearGradient id="Dégradé_sans_nom_3" x1="22.22" y1="45.47" x2="58.95" y2="45.47" gradientUnits="userSpaceOnUse"><stop offset="0" stop-color="#ffef26"/><stop offset="0.02" stop-color="#ffea21"/><stop offset="0.1" stop-color="#fed70f"/><stop offset="0.19" stop-color="#fdcc04"/><stop offset="0.28" stop-color="#fdc800"/><stop offset="0.67" stop-color="#f18f34"/><stop offset="0.75" stop-color="#ea6732"/><stop offset="0.86" stop-color="#e95f32"/><stop offset="1" stop-color="#e3312d"/></linearGradient><linearGradient id="Orange_Jaune-4" x1="128.27" y1="39.81" x2="166.47" y2="39.81" xlink:href="#Orange_Jaune"/></defs><circle class="cls-1" cx="94.88" cy="136.52" r="90.84"/><path class="cls-2" d="M26.72,94.2,0,81.17" transform="translate(0 0)"/><path class="cls-3" d="M26.72,94.2a22.63,22.63,0,0,1-8-.44,31.77,31.77,0,0,1-7.06-2.48,30.75,30.75,0,0,1-6.31-4A22.53,22.53,0,0,1,0,81.17a22.7,22.7,0,0,1,8.06.43,31.71,31.71,0,0,1,7,2.49,31.94,31.94,0,0,1,6.3,4A22.63,22.63,0,0,1,26.72,94.2Z" transform="translate(0 0)"/><path class="cls-4" d="M154.73,88.34l29.94-11.26" transform="translate(0 0)"/><path class="cls-5" d="M154.73,88.34a25.34,25.34,0,0,1,6.38-5.75A37.24,37.24,0,0,1,168.29,79a35.81,35.81,0,0,1,7.79-2,24.9,24.9,0,0,1,8.59.13,25,25,0,0,1-6.38,5.75,35.82,35.82,0,0,1-7.18,3.62,36.52,36.52,0,0,1-7.79,2A25.38,25.38,0,0,1,154.73,88.34Z" transform="translate(0 0)"/><path class="cls-6" d="M93.49,46.85Q93.85,23.42,94.2,0" transform="translate(0 0)"/><path class="cls-7" d="M93.49,46.85a41.23,41.23,0,0,1-3.74-11.77,62,62,0,0,1-.9-11.73,61.83,61.83,0,0,1,1.24-11.7A40.86,40.86,0,0,1,94.2,0,40.94,40.94,0,0,1,98,11.77a61.13,61.13,0,0,1,.89,11.73,62,62,0,0,1-1.26,11.7A41.1,41.1,0,0,1,93.49,46.85Z" transform="translate(0 0)"/><path class="cls-6" d="M55.41,60.32,25.76,30.63" transform="translate(0 0)"/><path class="cls-8" d="M55.41,60.32a34.52,34.52,0,0,1-10.19-4.66A50.23,50.23,0,0,1,37.05,49a49.39,49.39,0,0,1-6.66-8.17,33.92,33.92,0,0,1-4.63-10.2A34,34,0,0,1,36,35.27a49.44,49.44,0,0,1,8.17,6.67,50.42,50.42,0,0,1,6.65,8.19A34.12,34.12,0,0,1,55.41,60.32Z" transform="translate(0 0)"/><path class="cls-9" d="M131.81,55.4l31.12-31.17" transform="translate(0 0)"/><path class="cls-10" d="M131.81,55.4a37,37,0,0,1,5-10.56,55.42,55.42,0,0,1,7-8.56,54.87,54.87,0,0,1,8.54-7,37,37,0,0,1,10.56-5,36.74,36.74,0,0,1-5,10.57,54.83,54.83,0,0,1-7,8.55,55.4,55.4,0,0,1-8.55,7A37.33,37.33,0,0,1,131.81,55.4Z" transform="translate(0 0)"/><path class="cls-11" d="M98.2,182.2A59.73,59.73,0,0,0,129,167.92l11.3-20.17c2.21-4.25,9.77-20.1,4.45-38.69-6.06-21.2-26.48-37.65-49.7-38-25.81-.38-41.12,19.31-42.39,21-16.49,22-6.82,50.11-5.48,54.15,4.48,13.4,13.1,23.59,25.77,46.33A57.41,57.41,0,0,1,98.2,182.2Z" transform="translate(0 0)"/><path class="cls-11" d="M106.8,196.73A48.14,48.14,0,0,0,84.32,213l.9,1.63,7.1,12.75h3.37l19-33.92A64.84,64.84,0,0,1,106.8,196.73Z" transform="translate(0 0)"/><ellipse class="cls-12" cx="94.2" cy="121.6" rx="33.58" ry="33.27"/></svg>