<svg id="Calque_1" data-name="Calque 1" xmlns="http://www.w3.org/2000/svg" xmlns:xlink="http://www.w3.org/1999/xlink" viewBox="0 0 349.42 229.91"><defs><style>.cls-1{fill:#1d1d1b;}.cls-2{fill:#4f9634;}.cls-3{fill:#0c79b4;}.cls-4{fill:url(#Orange_Jaune);}.cls-5{fill:url(#Dégradé_sans_nom_2);}.cls-6{fill:url(#Orange_Jaune-2);}.cls-7{fill:#e6d000;}.cls-8{fill:url(#Orange_Jaune-3);}.cls-9{fill:url(#Dégradé_sans_nom_3);}.cls-10{fill:#fecb37;}.cls-11{fill:url(#Orange_Jaune-4);}.cls-12{fill:#fff;}.cls-13{fill:#3d95d2;}</style><linearGradient id="Orange_Jaune" x1="11.68" y1="87.69" x2="41.02" y2="87.69" gradientUnits="userSpaceOnUse"><stop offset="0" stop-color="#ffef26"/><stop offset="0.02" stop-color="#ffea21"/><stop offset="0.1" stop-color="#fed70f"/><stop offset="0.19" stop-color="#fdcc04"/><stop offset="0.28" stop-color="#fdc800"/><stop offset="0.67" stop-color="#f18f34"/><stop offset="0.89" stop-color="#e95f32"/><stop offset="1" stop-color="#e3312d"/></linearGradient><linearGradient id="Dégradé_sans_nom_2" x1="167.72" y1="82.71" x2="197.66" y2="82.71" gradientUnits="userSpaceOnUse"><stop offset="0" stop-color="#fff"/><stop offset="1"/></linearGradient><linearGradient id="Orange_Jaune-2" x1="166.67" y1="82.7" x2="198.72" y2="82.7" xlink:href="#Orange_Jaune"/><linearGradient id="Orange_Jaune-3" x1="102.48" y1="23.42" x2="111.19" y2="23.42" xlink:href="#Orange_Jaune"/><linearGradient id="Dégradé_sans_nom_3" x1="35.92" y1="45.47" x2="71.23" y2="45.47" gradientUnits="userSpaceOnUse"><stop offset="0" stop-color="#ffef26"/><stop offset="0.02" stop-color="#ffea21"/><stop offset="0.1" stop-color="#fed70f"/><stop offset="0.19" stop-color="#fdcc04"/><stop offset="0.28" stop-color="#fdc800"/><stop offset="0.67" stop-color="#f18f34"/><stop offset="0.75" stop-color="#ea6732"/><stop offset="0.86" stop-color="#e95f32"/><stop offset="1" stop-color="#e3312d"/></linearGradient><linearGradient id="Orange_Jaune-4" x1="141.97" y1="39.81" x2="178.75" y2="39.81" xlink:href="#Orange_Jaune"/></defs><path class="cls-1" d="M20.15,229.91a53.63,53.63,0,0,1-10.23-1,92.51,92.51,0,0,1-9.11-2.18v-6.45H16.93q11,0,16-2.82t5-10.08a10.82,10.82,0,0,0-2.74-7.74,23.33,23.33,0,0,0-7-4.92q-4.28-2-9.2-3.87a46.16,46.16,0,0,1-9.19-4.67,23,23,0,0,1-7-7.34Q0,174.28,0,167q0-12.09,7.25-16.53T29,146.07a59,59,0,0,1,10.32,1,55.29,55.29,0,0,1,9,2.25v6.46H32.25q-8.38,0-13.06,2.57T14.51,167a10.78,10.78,0,0,0,2.74,7.74,22.91,22.91,0,0,0,7,4.92q4.26,2,9.19,3.87a45.93,45.93,0,0,1,9.19,4.68,23,23,0,0,1,7,7.33q2.75,4.52,2.74,11.77,0,8.86-3.38,13.79T38.53,228Q31.43,229.92,20.15,229.91Z"/><path class="cls-1" d="M187.5,229.91a34.84,34.84,0,0,1-12.66-2.09,16.24,16.24,0,0,1-8.46-7.66q-3.07-5.57-3.07-16,0-10.16,3.07-15.56a16,16,0,0,1,8.46-7.42,36.24,36.24,0,0,1,12.66-2,76.16,76.16,0,0,1,8.14.48q4.44.48,8,1.13v-7.26q0-11-4.59-14.35t-13.14-3.38H169.76v-6.46a61.47,61.47,0,0,1,9.11-2.25,57.75,57.75,0,0,1,10.24-1,51.05,51.05,0,0,1,16.12,2.18,16.77,16.77,0,0,1,9.68,8.06q3.22,5.9,3.22,17.17V228.3H206l-.81-4.83h-.8a21,21,0,0,1-7.58,4.75A26.4,26.4,0,0,1,187.5,229.91Zm4.84-9.67a20.21,20.21,0,0,0,6.28-1.05,22.21,22.21,0,0,0,5-2.17V188.8H192.34a20,20,0,0,0-7.34,1.29,10.36,10.36,0,0,0-5.24,4.59c-1.29,2.21-1.94,5.35-1.94,9.44q0,6.45,1.94,9.91a10.56,10.56,0,0,0,5.24,4.84A18.86,18.86,0,0,0,192.34,220.24Z"/><path class="cls-1" d="M239.09,228.3V147.68h12.26l.8,6.46H253a29.74,29.74,0,0,1,7.82-4.44,32.29,32.29,0,0,1,12.17-2H281v12.1H264.89a24.62,24.62,0,0,0-6,.72,15.33,15.33,0,0,0-5.33,2.5v65.3Z"/><path class="cls-1" d="M292.19,228.3V115.44H306.7v69.33l23.38-37.09H346.2l-25,37.89,28.21,42.73H333.3l-26.6-41.92V228.3Z"/><path class="cls-2" d="M53.36,169.57"/><path class="cls-3" d="M39.71,94.2,13,81.17"/><path class="cls-4" d="M39.71,94.2A27.77,27.77,0,0,1,32,93.06a42.62,42.62,0,0,1-7-2.68,41.67,41.67,0,0,1-6.4-3.83A27,27,0,0,1,13,81.17a27.3,27.3,0,0,1,7.71,1.14,41.73,41.73,0,0,1,7,2.68,42.54,42.54,0,0,1,6.4,3.84A27.43,27.43,0,0,1,39.71,94.2Z"/><path class="cls-5" d="M167.72,88.34l29.94-11.26"/><path class="cls-6" d="M167.72,88.34a30.9,30.9,0,0,1,6.66-5,50.24,50.24,0,0,1,15-5.64,30.62,30.62,0,0,1,8.31-.6,30.93,30.93,0,0,1-6.65,5,48.39,48.39,0,0,1-7.26,3.41A49.32,49.32,0,0,1,176,87.72,31.53,31.53,0,0,1,167.72,88.34Z"/><path class="cls-7" d="M106.48,46.85q.36-23.43.71-46.85"/><path class="cls-8" d="M106.48,46.85a49,49,0,0,1-3-11.76,79.58,79.58,0,0,1-.68-11.73,77,77,0,0,1,1-11.7A48.11,48.11,0,0,1,107.19,0a48.12,48.12,0,0,1,3,11.76,76.93,76.93,0,0,1,.67,11.73,78.12,78.12,0,0,1-1,11.69A48.47,48.47,0,0,1,106.48,46.85Z"/><path class="cls-7" d="M68.4,60.32,38.75,30.63"/><path class="cls-9" d="M68.4,60.32a40.36,40.36,0,0,1-9.63-5.21,64,64,0,0,1-8-6.81,61.74,61.74,0,0,1-6.81-8,39.5,39.5,0,0,1-5.19-9.64,39.19,39.19,0,0,1,9.64,5.2,63.2,63.2,0,0,1,8,6.82,64.11,64.11,0,0,1,6.8,8A40.38,40.38,0,0,1,68.4,60.32Z"/><path class="cls-10" d="M144.8,55.4l31.12-31.17"/><path class="cls-11" d="M144.8,55.4a43.61,43.61,0,0,1,5.56-10,70.44,70.44,0,0,1,7.17-8.4,68.83,68.83,0,0,1,8.39-7.19,43,43,0,0,1,10-5.57,43.07,43.07,0,0,1-5.55,10,68.75,68.75,0,0,1-7.18,8.39,68.75,68.75,0,0,1-8.39,7.18A44,44,0,0,1,144.8,55.4Z"/><path class="cls-2" d="M111.19,182.2A59.73,59.73,0,0,0,142,167.92l11.31-20.17c2.2-4.25,9.76-20.1,4.44-38.69-6.06-21.2-26.48-37.65-49.69-38-25.82-.38-41.13,19.31-42.4,21-16.49,22-6.82,50.11-5.47,54.15,4.47,13.4,13.09,23.59,25.77,46.33A57.33,57.33,0,0,1,111.19,182.2Z"/><path class="cls-2" d="M119.79,196.73A48.14,48.14,0,0,0,97.31,213l.91,1.63,7.09,12.75h3.37l19-33.92A64.18,64.18,0,0,1,119.79,196.73Z"/><ellipse class="cls-12" cx="107.19" cy="121.6" rx="33.58" ry="33.27"/><path class="cls-13" d="M119.76,106.17q4.13,3.81,4.57,11.62t-3.19,12.07c-2.44,2.85-6,4.4-10.73,4.68l-3.75.22a4.72,4.72,0,0,0-4.64,4.77h0a4,4,0,0,1-4,4.09l-.39,0a4,4,0,0,1-4.39-3.6l-1.88-32.42a4,4,0,0,1,4-4.09l13.24-.76C113.28,102.49,117,103.63,119.76,106.17Zm-4.21,12.13q-.45-7.74-7-7.37l-4,.23a4.05,4.05,0,0,0-4,4.09l.45,7.74a4,4,0,0,0,4.42,3.6l4-.23a6.3,6.3,0,0,0,4.72-2.06Q115.79,122.44,115.55,118.3Z"/></svg>