<?xml version="1.0" encoding="UTF-8" standalone="no"?>
<!DOCTYPE svg PUBLIC "-//W3C//DTD SVG 1.1//EN"
 "http://www.w3.org/Graphics/SVG/1.1/DTD/svg11.dtd">
<!-- Generated by graphviz version 2.47.3 (20210619.1520)
 -->
<!-- Title: dependencies Pages: 1 -->
<svg width="2913pt" height="174pt"
 viewBox="0.00 0.00 2913.00 173.80" xmlns="http://www.w3.org/2000/svg" xmlns:xlink="http://www.w3.org/1999/xlink">
<g id="graph0" class="graph" transform="scale(1 1) rotate(0) translate(4 169.8)">
<title>dependencies</title>
<polygon fill="white" stroke="transparent" points="-4,4 -4,-169.8 2909,-169.8 2909,4 -4,4"/>
<text text-anchor="middle" x="1452.5" y="-8.2" font-family="sans-serif" font-size="14.00">dependencies</text>
<g id="clust1" class="cluster">
<title>cluster_HomeModule</title>
<polygon fill="none" stroke="black" stroke-dasharray="1,5" points="8,-32.8 8,-157.8 2897,-157.8 2897,-32.8 8,-32.8"/>
</g>
<g id="clust16" class="cluster">
<title>cluster_HomeModule_imports</title>
<polygon fill="none" stroke="black" points="2271,-40.8 2271,-92.8 2889,-92.8 2889,-40.8 2271,-40.8"/>
</g>
<g id="clust2" class="cluster">
<title>cluster_HomeModule_declarations</title>
<polygon fill="none" stroke="black" points="16,-40.8 16,-92.8 2263,-92.8 2263,-40.8 16,-40.8"/>
</g>
<!-- HomeComponent -->
<g id="node1" class="node">
<title>HomeComponent</title>
<polygon fill="#ffffb3" stroke="black" points="2254.55,-84.8 2139.45,-84.8 2139.45,-48.8 2254.55,-48.8 2254.55,-84.8"/>
<text text-anchor="middle" x="2197" y="-62.6" font-family="Times,serif" font-size="14.00">HomeComponent</text>
</g>
<!-- HomeModule -->
<g id="node14" class="node">
<title>HomeModule</title>
<polygon fill="#8dd3c7" stroke="black" points="1678.76,-149.8 1675.76,-153.8 1654.76,-153.8 1651.76,-149.8 1585.24,-149.8 1585.24,-113.8 1678.76,-113.8 1678.76,-149.8"/>
<text text-anchor="middle" x="1632" y="-127.6" font-family="Times,serif" font-size="14.00">HomeModule</text>
</g>
<!-- HomeComponent&#45;&gt;HomeModule -->
<g id="edge1" class="edge">
<title>HomeComponent&#45;&gt;HomeModule</title>
<path fill="none" stroke="black" d="M2197,-84.82C2197,-102.17 2197,-125.8 2197,-125.8 2197,-125.8 1689.2,-125.8 1689.2,-125.8"/>
<polygon fill="black" stroke="black" points="1689.2,-122.3 1679.2,-125.8 1689.2,-129.3 1689.2,-122.3"/>
</g>
<!-- NavbarComponent -->
<g id="node2" class="node">
<title>NavbarComponent</title>
<polygon fill="#ffffb3" stroke="black" points="2121.03,-84.8 1998.97,-84.8 1998.97,-48.8 2121.03,-48.8 2121.03,-84.8"/>
<text text-anchor="middle" x="2060" y="-62.6" font-family="Times,serif" font-size="14.00">NavbarComponent</text>
</g>
<!-- NavbarComponent&#45;&gt;HomeModule -->
<g id="edge2" class="edge">
<title>NavbarComponent&#45;&gt;HomeModule</title>
<path fill="none" stroke="black" d="M2060,-84.81C2060,-100.85 2060,-121.8 2060,-121.8 2060,-121.8 1689.03,-121.8 1689.03,-121.8"/>
<polygon fill="black" stroke="black" points="1689.03,-118.3 1679.03,-121.8 1689.03,-125.3 1689.03,-118.3"/>
</g>
<!-- AddressBarComponent -->
<g id="node3" class="node">
<title>AddressBarComponent</title>
<polygon fill="#ffffb3" stroke="black" points="1980.92,-84.8 1833.08,-84.8 1833.08,-48.8 1980.92,-48.8 1980.92,-84.8"/>
<text text-anchor="middle" x="1907" y="-62.6" font-family="Times,serif" font-size="14.00">AddressBarComponent</text>
</g>
<!-- AddressBarComponent&#45;&gt;HomeModule -->
<g id="edge3" class="edge">
<title>AddressBarComponent&#45;&gt;HomeModule</title>
<path fill="none" stroke="black" d="M1907,-84.92C1907,-99.58 1907,-117.8 1907,-117.8 1907,-117.8 1688.96,-117.8 1688.96,-117.8"/>
<polygon fill="black" stroke="black" points="1688.96,-114.3 1678.96,-117.8 1688.96,-121.3 1688.96,-114.3"/>
</g>
<!-- BottomPopupComponent -->
<g id="node4" class="node">
<title>BottomPopupComponent</title>
<polygon fill="#ffffb3" stroke="black" points="1815.62,-84.8 1656.38,-84.8 1656.38,-48.8 1815.62,-48.8 1815.62,-84.8"/>
<text text-anchor="middle" x="1736" y="-62.6" font-family="Times,serif" font-size="14.00">BottomPopupComponent</text>
</g>
<!-- BottomPopupComponent&#45;&gt;HomeModule -->
<g id="edge4" class="edge">
<title>BottomPopupComponent&#45;&gt;HomeModule</title>
<path fill="none" stroke="black" d="M1667.66,-84.91C1667.66,-84.91 1667.66,-103.79 1667.66,-103.79"/>
<polygon fill="black" stroke="black" points="1664.16,-103.79 1667.66,-113.79 1671.16,-103.79 1664.16,-103.79"/>
</g>
<!-- BottomPopupInteractiveComponent -->
<g id="node5" class="node">
<title>BottomPopupInteractiveComponent</title>
<polygon fill="#ffffb3" stroke="black" points="1638.47,-84.8 1419.53,-84.8 1419.53,-48.8 1638.47,-48.8 1638.47,-84.8"/>
<text text-anchor="middle" x="1529" y="-62.6" font-family="Times,serif" font-size="14.00">BottomPopupInteractiveComponent</text>
</g>
<!-- BottomPopupInteractiveComponent&#45;&gt;HomeModule -->
<g id="edge5" class="edge">
<title>BottomPopupInteractiveComponent&#45;&gt;HomeModule</title>
<path fill="none" stroke="black" d="M1611.8,-84.91C1611.8,-84.91 1611.8,-103.79 1611.8,-103.79"/>
<polygon fill="black" stroke="black" points="1608.3,-103.79 1611.8,-113.79 1615.3,-103.79 1608.3,-103.79"/>
</g>
<!-- PopupErrorMessageComponent -->
<g id="node6" class="node">
<title>PopupErrorMessageComponent</title>
<polygon fill="#ffffb3" stroke="black" points="1401.63,-84.8 1206.37,-84.8 1206.37,-48.8 1401.63,-48.8 1401.63,-84.8"/>
<text text-anchor="middle" x="1304" y="-62.6" font-family="Times,serif" font-size="14.00">PopupErrorMessageComponent</text>
</g>
<!-- PopupErrorMessageComponent&#45;&gt;HomeModule -->
<g id="edge6" class="edge">
<title>PopupErrorMessageComponent&#45;&gt;HomeModule</title>
<path fill="none" stroke="black" d="M1304,-84.92C1304,-99.58 1304,-117.8 1304,-117.8 1304,-117.8 1575.01,-117.8 1575.01,-117.8"/>
<polygon fill="black" stroke="black" points="1575.01,-121.3 1585.01,-117.8 1575.01,-114.3 1575.01,-121.3"/>
</g>
<!-- AddFavoritesComponent -->
<g id="node7" class="node">
<title>AddFavoritesComponent</title>
<polygon fill="#ffffb3" stroke="black" points="1187.54,-84.8 1030.46,-84.8 1030.46,-48.8 1187.54,-48.8 1187.54,-84.8"/>
<text text-anchor="middle" x="1109" y="-62.6" font-family="Times,serif" font-size="14.00">AddFavoritesComponent</text>
</g>
<!-- AddFavoritesComponent&#45;&gt;HomeModule -->
<g id="edge7" class="edge">
<title>AddFavoritesComponent&#45;&gt;HomeModule</title>
<path fill="none" stroke="black" d="M1109,-84.81C1109,-100.85 1109,-121.8 1109,-121.8 1109,-121.8 1575.13,-121.8 1575.13,-121.8"/>
<polygon fill="black" stroke="black" points="1575.13,-125.3 1585.13,-121.8 1575.13,-118.3 1575.13,-125.3"/>
</g>
<!-- MessageComponent -->
<g id="node8" class="node">
<title>MessageComponent</title>
<polygon fill="#ffffb3" stroke="black" points="1012.31,-84.8 881.69,-84.8 881.69,-48.8 1012.31,-48.8 1012.31,-84.8"/>
<text text-anchor="middle" x="947" y="-62.6" font-family="Times,serif" font-size="14.00">MessageComponent</text>
</g>
<!-- MessageComponent&#45;&gt;HomeModule -->
<g id="edge8" class="edge">
<title>MessageComponent&#45;&gt;HomeModule</title>
<path fill="none" stroke="black" d="M947,-84.82C947,-102.17 947,-125.8 947,-125.8 947,-125.8 1575.19,-125.8 1575.19,-125.8"/>
<polygon fill="black" stroke="black" points="1575.19,-129.3 1585.19,-125.8 1575.19,-122.3 1575.19,-129.3"/>
</g>
<!-- FavoriteMessageComponent -->
<g id="node9" class="node">
<title>FavoriteMessageComponent</title>
<polygon fill="#ffffb3" stroke="black" points="863.46,-84.8 686.54,-84.8 686.54,-48.8 863.46,-48.8 863.46,-84.8"/>
<text text-anchor="middle" x="775" y="-62.6" font-family="Times,serif" font-size="14.00">FavoriteMessageComponent</text>
</g>
<!-- FavoriteMessageComponent&#45;&gt;HomeModule -->
<g id="edge9" class="edge">
<title>FavoriteMessageComponent&#45;&gt;HomeModule</title>
<path fill="none" stroke="black" d="M775,-85.02C775,-103.63 775,-129.8 775,-129.8 775,-129.8 1575.01,-129.8 1575.01,-129.8"/>
<polygon fill="black" stroke="black" points="1575.01,-133.3 1585.01,-129.8 1575.01,-126.3 1575.01,-133.3"/>
</g>
<!-- MessageStandardComponent -->
<g id="node10" class="node">
<title>MessageStandardComponent</title>
<polygon fill="#ffffb3" stroke="black" points="668.07,-84.8 487.93,-84.8 487.93,-48.8 668.07,-48.8 668.07,-84.8"/>
<text text-anchor="middle" x="578" y="-62.6" font-family="Times,serif" font-size="14.00">MessageStandardComponent</text>
</g>
<!-- MessageStandardComponent&#45;&gt;HomeModule -->
<g id="edge10" class="edge">
<title>MessageStandardComponent&#45;&gt;HomeModule</title>
<path fill="none" stroke="black" d="M578,-85.11C578,-104.95 578,-133.8 578,-133.8 578,-133.8 1575.01,-133.8 1575.01,-133.8"/>
<polygon fill="black" stroke="black" points="1575.01,-137.3 1585.01,-133.8 1575.01,-130.3 1575.01,-137.3"/>
</g>
<!-- BoderUserComponent -->
<g id="node11" class="node">
<title>BoderUserComponent</title>
<polygon fill="#ffffb3" stroke="black" points="469.97,-84.8 328.03,-84.8 328.03,-48.8 469.97,-48.8 469.97,-84.8"/>
<text text-anchor="middle" x="399" y="-62.6" font-family="Times,serif" font-size="14.00">BoderUserComponent</text>
</g>
<!-- BoderUserComponent&#45;&gt;HomeModule -->
<g id="edge11" class="edge">
<title>BoderUserComponent&#45;&gt;HomeModule</title>
<path fill="none" stroke="black" d="M399,-85.08C399,-106.12 399,-137.8 399,-137.8 399,-137.8 1575.17,-137.8 1575.17,-137.8"/>
<polygon fill="black" stroke="black" points="1575.17,-141.3 1585.17,-137.8 1575.17,-134.3 1575.17,-141.3"/>
</g>
<!-- BoderAdminComponent -->
<g id="node12" class="node">
<title>BoderAdminComponent</title>
<polygon fill="#ffffb3" stroke="black" points="310.43,-84.8 155.57,-84.8 155.57,-48.8 310.43,-48.8 310.43,-84.8"/>
<text text-anchor="middle" x="233" y="-62.6" font-family="Times,serif" font-size="14.00">BoderAdminComponent</text>
</g>
<!-- BoderAdminComponent&#45;&gt;HomeModule -->
<g id="edge12" class="edge">
<title>BoderAdminComponent&#45;&gt;HomeModule</title>
<path fill="none" stroke="black" d="M233,-84.96C233,-107.15 233,-141.8 233,-141.8 233,-141.8 1575.05,-141.8 1575.05,-141.8"/>
<polygon fill="black" stroke="black" points="1575.05,-145.3 1585.05,-141.8 1575.05,-138.3 1575.05,-145.3"/>
</g>
<!-- ProfilComponent -->
<g id="node13" class="node">
<title>ProfilComponent</title>
<polygon fill="#ffffb3" stroke="black" points="137.72,-84.8 24.28,-84.8 24.28,-48.8 137.72,-48.8 137.72,-84.8"/>
<text text-anchor="middle" x="81" y="-62.6" font-family="Times,serif" font-size="14.00">ProfilComponent</text>
</g>
<!-- ProfilComponent&#45;&gt;HomeModule -->
<g id="edge13" class="edge">
<title>ProfilComponent&#45;&gt;HomeModule</title>
<path fill="none" stroke="black" d="M81,-85.12C81,-108.46 81,-145.8 81,-145.8 81,-145.8 1575.16,-145.8 1575.16,-145.8"/>
<polygon fill="black" stroke="black" points="1575.16,-149.3 1585.16,-145.8 1575.16,-142.3 1575.16,-149.3"/>
</g>
<!-- CommonModule -->
<g id="node15" class="node">
<title>CommonModule</title>
<polygon fill="#8dd3c7" stroke="black" points="2880.67,-84.8 2877.67,-88.8 2856.67,-88.8 2853.67,-84.8 2769.33,-84.8 2769.33,-48.8 2880.67,-48.8 2880.67,-84.8"/>
<text text-anchor="middle" x="2825" y="-62.6" font-family="Times,serif" font-size="14.00">CommonModule</text>
</g>
<!-- CommonModule&#45;&gt;HomeModule -->
<g id="edge14" class="edge">
<title>CommonModule&#45;&gt;HomeModule</title>
<path fill="none" stroke="black" d="M2825,-85.12C2825,-108.46 2825,-145.8 2825,-145.8 2825,-145.8 1688.77,-145.8 1688.77,-145.8"/>
<polygon fill="black" stroke="black" points="1688.77,-142.3 1678.77,-145.8 1688.77,-149.3 1688.77,-142.3"/>
</g>
<!-- HomeRoutingModule -->
<g id="node16" class="node">
<title>HomeRoutingModule</title>
<polygon fill="#8dd3c7" stroke="black" points="2751.38,-84.8 2748.38,-88.8 2727.38,-88.8 2724.38,-84.8 2612.62,-84.8 2612.62,-48.8 2751.38,-48.8 2751.38,-84.8"/>
<text text-anchor="middle" x="2682" y="-62.6" font-family="Times,serif" font-size="14.00">HomeRoutingModule</text>
</g>
<!-- HomeRoutingModule&#45;&gt;HomeModule -->
<g id="edge15" class="edge">
<title>HomeRoutingModule&#45;&gt;HomeModule</title>
<path fill="none" stroke="black" d="M2682,-84.96C2682,-107.15 2682,-141.8 2682,-141.8 2682,-141.8 1688.81,-141.8 1688.81,-141.8"/>
<polygon fill="black" stroke="black" points="1688.81,-138.3 1678.81,-141.8 1688.81,-145.3 1688.81,-138.3"/>
</g>
<!-- LeafletModule -->
<g id="node17" class="node">
<title>LeafletModule</title>
<polygon fill="#8dd3c7" stroke="black" points="2594.69,-84.8 2591.69,-88.8 2570.69,-88.8 2567.69,-84.8 2495.31,-84.8 2495.31,-48.8 2594.69,-48.8 2594.69,-84.8"/>
<text text-anchor="middle" x="2545" y="-62.6" font-family="Times,serif" font-size="14.00">LeafletModule</text>
</g>
<!-- LeafletModule&#45;&gt;HomeModule -->
<g id="edge16" class="edge">
<title>LeafletModule&#45;&gt;HomeModule</title>
<path fill="none" stroke="black" d="M2545,-85.08C2545,-106.12 2545,-137.8 2545,-137.8 2545,-137.8 1688.85,-137.8 1688.85,-137.8"/>
<polygon fill="black" stroke="black" points="1688.85,-134.3 1678.85,-137.8 1688.85,-141.3 1688.85,-134.3"/>
</g>
<!-- MapModule -->
<g id="node18" class="node">
<title>MapModule</title>
<polygon fill="#8dd3c7" stroke="black" points="2477.71,-84.8 2474.71,-88.8 2453.71,-88.8 2450.71,-84.8 2392.29,-84.8 2392.29,-48.8 2477.71,-48.8 2477.71,-84.8"/>
<text text-anchor="middle" x="2435" y="-62.6" font-family="Times,serif" font-size="14.00">MapModule</text>
</g>
<!-- MapModule&#45;&gt;HomeModule -->
<g id="edge17" class="edge">
<title>MapModule&#45;&gt;HomeModule</title>
<path fill="none" stroke="black" d="M2435,-85.11C2435,-104.95 2435,-133.8 2435,-133.8 2435,-133.8 1688.94,-133.8 1688.94,-133.8"/>
<polygon fill="black" stroke="black" points="1688.94,-130.3 1678.94,-133.8 1688.94,-137.3 1688.94,-130.3"/>
</g>
<!-- FormsModule -->
<g id="node19" class="node">
<title>FormsModule</title>
<polygon fill="#8dd3c7" stroke="black" points="2374.83,-84.8 2371.83,-88.8 2350.83,-88.8 2347.83,-84.8 2279.17,-84.8 2279.17,-48.8 2374.83,-48.8 2374.83,-84.8"/>
<text text-anchor="middle" x="2327" y="-62.6" font-family="Times,serif" font-size="14.00">FormsModule</text>
</g>
<!-- FormsModule&#45;&gt;HomeModule -->
<g id="edge18" class="edge">
<title>FormsModule&#45;&gt;HomeModule</title>
<path fill="none" stroke="black" d="M2327,-85.02C2327,-103.63 2327,-129.8 2327,-129.8 2327,-129.8 1688.95,-129.8 1688.95,-129.8"/>
<polygon fill="black" stroke="black" points="1688.95,-126.3 1678.95,-129.8 1688.95,-133.3 1688.95,-126.3"/>
</g>
</g>
</svg>
