<?xml version="1.0" encoding="UTF-8" standalone="no"?> <!-- Created with Vectornator (http://vectornator.io/) --><!DOCTYPE svg PUBLIC "-//W3C//DTD SVG 1.1//EN" "http://www.w3.org/Graphics/SVG/1.1/DTD/svg11.dtd">
<svg height="100%" stroke-miterlimit="10" style="fill-rule:nonzero;clip-rule:evenodd;stroke-linecap:round;stroke-linejoin:round;" version="1.1" viewBox="0 0 512 512" width="100%" xml:space="preserve" xmlns="http://www.w3.org/2000/svg" xmlns:vectornator="http://vectornator.io" xmlns:xlink="http://www.w3.org/1999/xlink">
<metadata>
<vectornator:setting key="IsTimeLapseWatermarkDisabled" value="false"/>
<vectornator:setting key="UndoHistoryDisabled" value="true"/>
<vectornator:setting key="VNDimensionsVisible" value="true"/>
<vectornator:setting key="VNSnapToGuides" value="true"/>
<vectornator:setting key="WDCMYKEnabledKey" value="false"/>
<vectornator:setting key="WDDisplayWhiteBackground" value="false"/>
<vectornator:setting key="WDDynamicGuides" value="false"/>
<vectornator:setting key="WDGuidesVisible" value="true"/>
<vectornator:setting key="WDIsolateActiveLayer" value="false"/>
<vectornator:setting key="WDOutlineMode" value="false"/>
<vectornator:setting key="WDRulersVisible" value="true"/>
<vectornator:setting key="WDSnapToEdges" value="false"/>
<vectornator:setting key="WDSnapToGrid" value="false"/>
<vectornator:setting key="WDSnapToPoints" value="false"/>
<vectornator:setting key="WDUnits" value="Pixels"/>
</metadata>
<defs>
<clipPath id="TextBounds">
<rect height="476.327" width="396.814" x="10.9867" y="16.8161"/>
</clipPath>
<clipPath id="TextBounds_2">
<rect height="82.7349" width="152.626" x="228.762" y="362.984"/>
</clipPath>
</defs>
<g id="route-nav-via" vectornator:layerName="route-nav-via">
<path clip-path="url(#TextBounds)" d="M323.839 198.005L222.985 402.131C216.832 414.728 210.973 423.407 205.407 428.168C199.84 432.929 192.809 435.309 184.313 435.309C177.282 435.309 170.983 433.771 165.416 430.695C161.168 428.351 157.836 425.605 155.419 422.455C153.002 419.306 149.962 413.63 146.3 405.426L56.4321 207.453C51.4516 196.32 46.9472 188.739 42.9189 184.711C38.8906 180.683 33.141 178.009 25.6703 176.691C16.8813 175.08 12.4867 169.66 12.4867 160.431C12.4867 149.152 20.1772 140.473 35.558 134.394C50.9389 128.315 72.9848 125.275 101.696 125.275C131.579 125.275 153.551 127.546 167.614 132.087C181.676 136.628 188.707 143.659 188.707 153.18C188.707 159.333 184.899 165.046 177.282 170.319C171.422 174.274 168.493 178.009 168.493 181.525C168.493 184.748 169.811 189.362 172.448 195.368L199.914 257.331C203.869 266.413 208.336 270.954 213.317 270.954C218.151 270.954 222.472 268.537 226.281 263.703C230.089 258.869 235.216 249.347 241.662 235.138C253.234 209.65 259.972 194.599 261.876 189.985C263.781 185.37 264.733 181.818 264.733 179.328C264.733 174.347 261.29 170.099 254.406 166.584C246.789 162.629 242.98 157.575 242.98 151.423C242.98 133.991 266.344 125.275 313.073 125.275C336.364 125.275 352.807 127.143 362.401 130.878C371.996 134.613 376.793 141.022 376.793 150.104C376.793 160.944 370.495 167.17 357.897 168.781C348.961 169.806 343.175 171.271 340.539 173.175C335.851 176.545 330.285 184.821 323.839 198.005Z" fill="#000000" fill-rule="evenodd" opacity="1" stroke="none"/>
<g fill="#000000" opacity="1" stroke="none">
<path clip-path="url(#TextBounds_2)" d="M253.465 399.773L253.465 422.469C253.465 424.265 253.628 425.581 253.953 426.414C254.279 427.247 254.936 428.015 255.926 428.719C256.733 429.291 257.273 429.78 257.547 430.183C257.82 430.587 257.957 431.101 257.957 431.726C257.957 435.086 253.699 436.765 245.184 436.765C240.6 436.765 236.967 436.401 234.285 435.672C233.374 435.411 232.638 434.956 232.078 434.304C231.518 433.653 231.238 432.911 231.238 432.078C231.238 431.375 231.381 430.828 231.668 430.437C231.954 430.047 232.684 429.422 233.855 428.562C234.663 427.963 235.236 426.987 235.574 425.633C235.913 424.278 236.082 422.26 236.082 419.578C236.082 418.719 236.023 417.11 235.906 414.754C235.789 412.397 235.704 411.023 235.652 410.633C235.496 409.565 234.767 408.745 233.465 408.172C231.85 407.469 231.043 406.427 231.043 405.047C231.043 403.406 232.098 402.182 234.207 401.375C237.124 400.255 240.249 399.304 243.582 398.523C246.915 397.742 249.493 397.351 251.316 397.351C252.749 397.351 253.465 398.159 253.465 399.773ZM245.73 382.664C247.996 382.664 249.793 383.087 251.121 383.933C252.449 384.78 253.113 385.919 253.113 387.351C253.113 389.357 252.111 390.945 250.105 392.117C246.928 393.966 243.087 394.89 238.582 394.89C236.681 394.89 235.171 394.526 234.051 393.797C232.54 392.859 231.785 391.557 231.785 389.89C231.785 387.651 233.387 385.893 236.59 384.617C239.845 383.315 242.892 382.664 245.73 382.664Z" fill-rule="evenodd"/>
<path clip-path="url(#TextBounds_2)" d="M282.566 397.039C287.098 397.039 290.939 398.185 294.09 400.476C295.756 401.7 296.922 403.1 297.586 404.676C298.25 406.251 298.582 408.419 298.582 411.179L298.504 417C298.504 421.036 298.79 423.653 299.363 424.851C299.65 425.424 299.923 425.789 300.184 425.945C300.444 426.101 300.991 426.245 301.824 426.375C302.658 426.505 303.074 427.052 303.074 428.015C303.074 429.265 302.573 430.567 301.57 431.922C300.568 433.276 299.272 434.409 297.684 435.32C295.73 436.466 293.686 437.039 291.551 437.039C288.816 437.039 286.655 436.101 285.066 434.226C284.519 433.549 284.012 433.211 283.543 433.211C283.022 433.211 282.332 433.536 281.473 434.187C278.868 436.088 275.913 437.039 272.605 437.039C269.194 437.039 266.434 436.31 264.324 434.851C262.944 433.888 261.85 432.631 261.043 431.082C260.236 429.532 259.832 427.911 259.832 426.219C259.832 423.51 260.926 421.114 263.113 419.031C266.525 415.75 271.629 414.096 278.426 414.07C279.936 414.07 280.887 413.92 281.277 413.621C281.668 413.321 281.863 412.625 281.863 411.531C281.863 408.771 281.577 406.772 281.004 405.535C280.431 404.298 279.493 403.679 278.191 403.679C277.41 403.679 276.713 403.914 276.102 404.383C275.49 404.851 274.728 405.711 273.816 406.961C271.499 410.268 269.077 411.922 266.551 411.922C265.275 411.922 264.233 411.544 263.426 410.789C262.618 410.034 262.215 409.044 262.215 407.82C262.215 406.57 262.716 405.32 263.719 404.07C264.721 402.82 266.082 401.726 267.801 400.789C272.514 398.289 277.436 397.039 282.566 397.039ZM279.949 419.656C278.803 419.656 277.807 420.125 276.961 421.062C276.115 422 275.691 423.12 275.691 424.422C275.691 425.672 275.991 426.681 276.59 427.449C277.189 428.217 277.983 428.601 278.973 428.601C281.056 428.601 282.098 426.844 282.098 423.328C282.098 421.896 281.948 420.932 281.648 420.437C281.349 419.942 280.783 419.682 279.949 419.656Z" fill-rule="evenodd"/>
</g>
</g>
</svg>
