<?xml version="1.0" encoding="UTF-8" standalone="no"?> <!-- Created with Vectornator (http://vectornator.io/) --><!DOCTYPE svg PUBLIC "-//W3C//DTD SVG 1.1//EN" "http://www.w3.org/Graphics/SVG/1.1/DTD/svg11.dtd">
<svg height="100%" stroke-miterlimit="10" style="fill-rule:nonzero;clip-rule:evenodd;stroke-linecap:round;stroke-linejoin:round;" version="1.1" viewBox="0 0 512 512" width="100%" xml:space="preserve" xmlns="http://www.w3.org/2000/svg" xmlns:vectornator="http://vectornator.io" xmlns:xlink="http://www.w3.org/1999/xlink">
<metadata>
<vectornator:setting key="IsTimeLapseWatermarkDisabled" value="false"/>
<vectornator:setting key="UndoHistoryDisabled" value="true"/>
<vectornator:setting key="VNDimensionsVisible" value="true"/>
<vectornator:setting key="VNSnapToGuides" value="true"/>
<vectornator:setting key="WDCMYKEnabledKey" value="false"/>
<vectornator:setting key="WDDisplayWhiteBackground" value="false"/>
<vectornator:setting key="WDDynamicGuides" value="false"/>
<vectornator:setting key="WDGuidesVisible" value="true"/>
<vectornator:setting key="WDIsolateActiveLayer" value="false"/>
<vectornator:setting key="WDOutlineMode" value="false"/>
<vectornator:setting key="WDRulersVisible" value="true"/>
<vectornator:setting key="WDSnapToEdges" value="false"/>
<vectornator:setting key="WDSnapToGrid" value="false"/>
<vectornator:setting key="WDSnapToPoints" value="false"/>
<vectornator:setting key="WDUnits" value="Pixels"/>
</metadata>
<defs/>
<g id="route-nav-down_right" vectornator:layerName="route-nav-down_right">
<path d="M15.2714 254.61C15.2714 122.062 122.723 14.6099 255.271 14.6099C387.82 14.6099 495.271 122.062 495.271 254.61C495.271 387.158 387.82 494.61 255.271 494.61C122.723 494.61 15.2714 387.158 15.2714 254.61Z" fill="#000000" fill-rule="evenodd" opacity="1" stroke="none"/>
<path d="M110.133 370.103C110.133 353.535 123.564 340.103 140.133 340.103C156.701 340.103 170.133 353.535 170.133 370.103C170.133 386.672 156.701 400.103 140.133 400.103C123.564 400.103 110.133 386.672 110.133 370.103Z" fill="#ffffff" fill-rule="evenodd" opacity="1" stroke="none"/>
<path d="M110.122 111.519L170.122 111.519L170.122 370.925L110.122 370.925L110.122 111.519Z" fill="#ffffff" fill-rule="evenodd" opacity="1" stroke="none"/>
<path d="M110.118 112.576C110.118 96.0077 123.55 82.5763 140.118 82.5763C156.687 82.5763 170.118 96.0077 170.118 112.576C170.118 129.145 156.687 142.576 140.118 142.576C123.55 142.576 110.118 129.145 110.118 112.576Z" fill="#ffffff" fill-rule="evenodd" opacity="1" stroke="none"/>
<path d="M158.062 88.5312L117.25 130.469L252.375 262.312C274.547 284.028 296.72 305.738 318.875 327.438C302.471 327.608 286.092 327.767 269.688 327.938C231.789 328.332 232.585 387.083 270.625 386.688C310.645 386.271 350.667 385.854 390.688 385.438C406.667 385.271 419.698 371.574 419.531 355.594C419.115 315.574 418.697 275.551 418.281 235.531C417.887 197.632 359.136 198.46 359.531 236.5C359.7 252.763 359.862 269.175 360.031 285.438C313.594 239.956 267.156 194.45 220.719 148.969C219.442 147.719 218.113 146.768 216.781 145.812L158.062 88.5312Z" fill="#ffffff" fill-rule="evenodd" opacity="1" stroke="none"/>
</g>
</svg>
