<?xml version="1.0" encoding="UTF-8" standalone="no"?> <!-- Created with Vectornator (http://vectornator.io/) --><!DOCTYPE svg PUBLIC "-//W3C//DTD SVG 1.1//EN" "http://www.w3.org/Graphics/SVG/1.1/DTD/svg11.dtd">
<svg height="100%" stroke-miterlimit="10" style="fill-rule:nonzero;clip-rule:evenodd;stroke-linecap:round;stroke-linejoin:round;" version="1.1" viewBox="0 0 512 512" width="100%" xml:space="preserve" xmlns="http://www.w3.org/2000/svg" xmlns:vectornator="http://vectornator.io" xmlns:xlink="http://www.w3.org/1999/xlink">
<metadata>
<vectornator:setting key="IsTimeLapseWatermarkDisabled" value="false"/>
<vectornator:setting key="UndoHistoryDisabled" value="true"/>
<vectornator:setting key="VNDimensionsVisible" value="true"/>
<vectornator:setting key="VNSnapToGuides" value="true"/>
<vectornator:setting key="WDCMYKEnabledKey" value="false"/>
<vectornator:setting key="WDDisplayWhiteBackground" value="false"/>
<vectornator:setting key="WDDynamicGuides" value="false"/>
<vectornator:setting key="WDGuidesVisible" value="true"/>
<vectornator:setting key="WDIsolateActiveLayer" value="false"/>
<vectornator:setting key="WDOutlineMode" value="false"/>
<vectornator:setting key="WDRulersVisible" value="true"/>
<vectornator:setting key="WDSnapToEdges" value="false"/>
<vectornator:setting key="WDSnapToGrid" value="false"/>
<vectornator:setting key="WDSnapToPoints" value="false"/>
<vectornator:setting key="WDUnits" value="Pixels"/>
</metadata>
<defs/>
<g id="route-nav-up-right" vectornator:layerName="route-nav-up-right">
<path d="M15.2714 254.61C15.2714 122.062 122.723 14.6099 255.271 14.6099C387.82 14.6099 495.271 122.062 495.271 254.61C495.271 387.158 387.82 494.61 255.271 494.61C122.723 494.61 15.2714 387.158 15.2714 254.61Z" fill="#000000" fill-rule="evenodd" opacity="1" stroke="none"/>
<path d="M365.639 83.6197C325.948 78.4813 286.257 73.3429 246.566 68.2045C208.978 63.3385 201.645 121.64 239.372 126.524C255.501 128.612 271.77 130.718 287.899 132.806C236.416 172.487 184.934 212.168 133.451 251.848C103.433 274.985 139.012 321.801 169.03 298.664C220.592 258.923 272.233 219.12 323.795 179.378C321.688 195.647 319.582 211.917 317.476 228.186C312.61 265.773 370.911 273.107 375.796 235.379C380.934 195.688 386.072 155.997 391.211 116.306C393.263 100.458 381.487 85.6714 365.639 83.6197Z" fill="#ffffff" fill-rule="evenodd" opacity="1" stroke="none"/>
<path d="M122.079 371.317C122.079 354.748 135.51 341.317 152.079 341.317C168.648 341.317 182.079 354.748 182.079 371.317C182.079 387.885 168.648 401.317 152.079 401.317C135.51 401.317 122.079 387.885 122.079 371.317Z" fill="#ffffff" fill-rule="evenodd" opacity="1" stroke="none"/>
<path d="M122.069 274.436L182.069 274.436L182.069 372.139L122.069 372.139L122.069 274.436Z" fill="#ffffff" fill-rule="evenodd" opacity="1" stroke="none"/>
</g>
</svg>
