<?xml version="1.0" encoding="UTF-8" standalone="no"?> <!-- Created with Vectornator (http://vectornator.io/) --><!DOCTYPE svg PUBLIC "-//W3C//DTD SVG 1.1//EN" "http://www.w3.org/Graphics/SVG/1.1/DTD/svg11.dtd">
<svg height="100%" stroke-miterlimit="10" style="fill-rule:nonzero;clip-rule:evenodd;stroke-linecap:round;stroke-linejoin:round;" version="1.1" viewBox="0 0 512 512" width="100%" xml:space="preserve" xmlns="http://www.w3.org/2000/svg" xmlns:vectornator="http://vectornator.io" xmlns:xlink="http://www.w3.org/1999/xlink">
<metadata>
<vectornator:setting key="IsTimeLapseWatermarkDisabled" value="false"/>
<vectornator:setting key="UndoHistoryDisabled" value="true"/>
<vectornator:setting key="VNDimensionsVisible" value="true"/>
<vectornator:setting key="VNSnapToGuides" value="true"/>
<vectornator:setting key="WDCMYKEnabledKey" value="false"/>
<vectornator:setting key="WDDisplayWhiteBackground" value="false"/>
<vectornator:setting key="WDDynamicGuides" value="false"/>
<vectornator:setting key="WDGuidesVisible" value="true"/>
<vectornator:setting key="WDIsolateActiveLayer" value="false"/>
<vectornator:setting key="WDOutlineMode" value="false"/>
<vectornator:setting key="WDRulersVisible" value="true"/>
<vectornator:setting key="WDSnapToEdges" value="false"/>
<vectornator:setting key="WDSnapToGrid" value="false"/>
<vectornator:setting key="WDSnapToPoints" value="false"/>
<vectornator:setting key="WDUnits" value="Pixels"/>
</metadata>
<defs/>
<g id="1-2_route-nav-turn_back-Copy" vectornator:layerName="1-2_route-nav-turn_back Copy">
<path d="M15.2714 254.61C15.2714 122.062 122.723 14.6099 255.271 14.6099C387.82 14.6099 495.271 122.062 495.271 254.61C495.271 387.158 387.82 494.61 255.271 494.61C122.723 494.61 15.2714 387.158 15.2714 254.61Z" fill="#000000" fill-rule="evenodd" opacity="1" stroke="none"/>
<path d="M184.965 435.116C213.431 406.983 241.897 378.85 270.363 350.717C297.321 324.075 255.865 282.431 228.807 309.172C217.24 320.604 205.572 332.135 194.004 343.567C194.387 278.569 194.77 213.57 195.152 148.571C195.375 110.671 136.579 109.925 136.356 147.825C135.972 212.923 135.588 278.122 135.205 343.221C123.674 331.553 112.142 319.885 100.611 308.217C73.9689 281.26 32.3241 322.715 59.0652 349.773C87.1981 378.239 115.331 406.705 143.464 435.171C154.697 446.538 173.599 446.349 184.965 435.116Z" fill="#ffffff" fill-rule="evenodd" opacity="1" stroke="none"/>
<path d="M354.702 404.628C354.702 388.059 368.134 374.628 384.702 374.628C401.271 374.628 414.702 388.059 414.702 404.628C414.702 421.196 401.271 434.628 384.702 434.628C368.134 434.628 354.702 421.196 354.702 404.628Z" fill="#ffffff" fill-rule="evenodd" opacity="1" stroke="none"/>
<path d="M354.692 142.288L414.692 142.288L414.692 405.45L354.692 405.45L354.692 142.288Z" fill="#ffffff" fill-rule="evenodd" opacity="1" stroke="none"/>
</g>
<g id="2-2_route-nav-turn_back-Copy" vectornator:layerName="2-2_route-nav-turn_back Copy">
<path d="M275.906 27.125C201.756 27.125 141.447 76.4417 138.219 138.25C138.765 138.177 139.302 138.117 139.906 138.094C140.771 138.061 141.842 138.068 143.156 138.094C145.269 138.135 148.013 138.242 151.375 138.406C152.352 138.454 162.564 139.02 162.844 139.031C167.473 139.211 184.73 139.945 186.75 140.031C189.96 140.168 191.749 140.203 194.5 140.312C194.314 137.142 195.25 133.964 196.812 130.188C196.374 128.47 196.362 126.817 196.625 125.25C196.873 123.771 197.38 122.292 198.219 120.906C198.315 120.747 198.459 120.624 198.562 120.469C199.748 115.749 202.677 108.965 205.094 106.281C204.99 106.397 204.946 106.444 204.969 106.406C205.075 106.226 205.709 104.988 205.781 104.844C206.507 103.402 207.085 102.396 207.906 101.25C212.222 95.2268 216.422 90.3566 220.875 86.875C222.631 85.5022 224.048 84.7919 226.469 83.7812C226.59 83.7307 226.604 83.7352 226.719 83.6875C227.61 83.3162 227.855 83.1799 227.844 83.1875C228.597 82.663 230.952 80.3609 230.969 80.3438C234.807 76.4746 237.003 74.6422 240.875 72.875C244.932 71.0237 248.048 70.3461 254.469 69.4062C256.163 69.1583 256.841 69.053 257.688 68.9062C257.882 68.8725 258.067 68.8464 258.25 68.8125C264.195 67.7115 270.035 67.1909 275.719 67.2812C292.77 67.5523 308.272 73.2689 319.938 85C320.607 85.6734 320.999 86.489 321.438 87.2812C323.555 88.5092 325.715 89.7216 327.656 91.0312C337.333 97.5594 342.367 106.465 347.25 121.344C347.542 122.233 348.955 126.69 349.094 127.125C349.805 129.364 350.278 130.843 350.781 132.281C350.791 132.307 350.801 132.31 350.812 132.344C350.988 132.722 352.697 136.388 352.844 136.719C352.944 136.943 353 137.096 353.094 137.312C353.919 137.857 354.716 138.58 355.5 139.594C356.411 140.771 356.956 142.047 357.281 143.344C358.138 143.368 358.877 143.262 359.812 143.344C360.54 143.407 363.751 143.77 364.219 143.812C368.56 144.21 374.468 144.461 380.062 144.75C386.188 144.325 391.577 144 396.406 144C397.517 144 398.685 143.954 399.969 143.875C401.938 143.754 403.603 143.616 407.312 143.219C410.549 142.872 411.962 142.829 413.875 142.688C413.41 78.8003 351.838 27.125 275.906 27.125Z" fill="#ffffff" fill-rule="evenodd" opacity="1" stroke="#ffffff" stroke-linecap="round" stroke-linejoin="round" stroke-width="2"/>
<path d="M391.062 206.844C391.094 206.977 391.16 207.083 391.188 207.219C391.275 207.107 391.35 206.987 391.438 206.875C391.333 206.875 391.167 206.844 391.062 206.844Z" fill="none" fill-rule="evenodd" opacity="1" stroke="#ffffff" stroke-linecap="round" stroke-linejoin="round" stroke-width="2"/>
<path d="M274.656 59.5312C231.005 59.5312 195.517 95.4139 193.906 140.281C194.119 140.29 194.287 140.304 194.5 140.312C194.314 137.142 195.25 133.964 196.812 130.188C196.374 128.47 196.362 126.817 196.625 125.25C196.873 123.771 197.38 122.292 198.219 120.906C198.315 120.747 198.459 120.624 198.562 120.469C199.748 115.749 202.677 108.965 205.094 106.281C204.99 106.397 204.946 106.444 204.969 106.406C205.075 106.226 205.709 104.988 205.781 104.844C206.507 103.402 207.085 102.396 207.906 101.25C212.222 95.2268 216.422 90.3566 220.875 86.875C222.631 85.5022 224.048 84.7919 226.469 83.7812C226.59 83.7307 226.604 83.7352 226.719 83.6875C227.61 83.3162 227.855 83.1799 227.844 83.1875C228.597 82.663 230.952 80.3609 230.969 80.3438C234.807 76.4746 237.003 74.6422 240.875 72.875C244.932 71.0237 248.048 70.3461 254.469 69.4062C256.163 69.1583 256.841 69.053 257.688 68.9062C257.882 68.8725 258.067 68.8464 258.25 68.8125C264.195 67.7115 270.035 67.1909 275.719 67.2812C292.77 67.5523 308.272 73.2689 319.938 85C320.607 85.6734 320.999 86.489 321.438 87.2812C323.555 88.5092 325.715 89.7216 327.656 91.0312C337.333 97.5594 342.367 106.465 347.25 121.344C347.542 122.233 348.955 126.69 349.094 127.125C349.805 129.364 350.278 130.843 350.781 132.281C350.791 132.307 350.801 132.31 350.812 132.344C350.988 132.722 352.697 136.388 352.844 136.719C352.942 136.939 352.971 137.1 353.062 137.312C353.074 137.32 353.083 137.336 353.094 137.344C353.874 137.867 354.633 138.54 355.375 139.469C353.362 94.9864 318.04 59.5312 274.656 59.5312Z" fill="none" fill-rule="evenodd" opacity="1" stroke="#ffffff" stroke-linecap="round" stroke-linejoin="round" stroke-width="2"/>
<path d="M196.54 139.898C196.54 96.961 231.601 62.1537 274.851 62.1537C318.102 62.1537 353.163 96.961 353.163 139.898C353.163 182.835 318.102 217.642 274.851 217.642C231.601 217.642 196.54 182.835 196.54 139.898Z" fill="#000000" fill-rule="evenodd" opacity="1" stroke="#000000" stroke-linecap="round" stroke-linejoin="round" stroke-width="2"/>
<path d="M357.532 140.5C357.529 140.514 357.242 143.176 356.996 143.24C356.912 143.261 356.932 143.077 356.921 142.991C356.833 142.283 356.823 141.563 356.785 140.852C356.771 140.594 356.824 139.858 356.693 140.081C356.323 140.713 356.586 142.17 356.493 142.933C356.486 142.986 356.439 143.358 356.38 143.332C356.105 143.212 356.059 141.219 356.054 140.853C356.049 140.573 356.22 139.859 355.987 140.015C355.702 140.206 355.99 141.829 355.99 142.195C355.99 142.394 355.99 142.593 355.99 142.792C355.99 142.913 355.99 143.274 355.99 143.154C355.99 142.056 355.969 141.467 355.583 140.487C355.469 140.2 355.398 139.893 355.288 139.605C355.231 139.455 355.24 138.963 355.24 139.124C355.24 140.447 355.583 142.19 355.93 143.469C356.043 143.888 356.302 145.475 356.302 145.354" fill="#ffffff" fill-rule="evenodd" opacity="1" stroke="#ffffff" stroke-linecap="round" stroke-linejoin="round" stroke-width="2"/>
<path d="M193.377 143.335C193.377 142.45 193.398 141.457 193.527 140.571C193.541 140.476 193.751 139.169 193.878 139.273C194.213 139.545 194.015 143.187 193.908 143.82C193.832 144.266 193.871 144.754 193.777 145.189C193.764 145.253 193.695 145.757 193.814 145.678C194.371 145.305 194.264 139.81 194.168 138.697C194.103 137.951 194.158 137.179 194.158 136.43C194.158 136.378 194.145 135.325 194.028 135.439C193.954 135.513 194.097 135.865 194.113 135.92C194.456 137.075 194.657 138.032 194.657 139.25C194.657 142.333 193.996 145.316 193.6 148.356C193.425 149.693 193.354 151.027 193.218 152.366C193.137 153.152 193.161 152.486 193.161 152.112" fill="#ffffff" fill-rule="evenodd" opacity="1" stroke="#ffffff" stroke-linecap="round" stroke-linejoin="round" stroke-width="2"/>
<path d="M139.333 141.253C139.008 140.193 138.945 139.265 138.945 138.178C138.945 138.016 139.083 137.247 138.943 137.129C138.803 137.011 138.562 138.859 138.544 138.983C138.343 140.382 138.1 141.572 138.1 142.99C138.1 143.117 138.061 142.741 138.032 142.618C137.97 142.348 137.958 142.321 137.911 142.031C137.877 141.828 137.848 141.624 137.822 141.42C137.655 140.075 137.778 138.714 137.863 137.384C137.892 136.93 137.965 136.489 138.072 136.045C138.119 135.852 138.178 135.26 138.178 135.458C138.178 138.416 136.756 141.296 137.119 144.297C137.612 148.377 139.455 152.071 140.41 156.046" fill="#ffffff" fill-rule="evenodd" opacity="1" stroke="#ffffff" stroke-linecap="round" stroke-linejoin="round" stroke-width="2"/>
</g>
</svg>
