<?xml version="1.0" encoding="UTF-8" standalone="no"?> <!-- Created with Vectornator (http://vectornator.io/) --><!DOCTYPE svg PUBLIC "-//W3C//DTD SVG 1.1//EN" "http://www.w3.org/Graphics/SVG/1.1/DTD/svg11.dtd">
<svg height="100%" stroke-miterlimit="10" style="fill-rule:nonzero;clip-rule:evenodd;stroke-linecap:round;stroke-linejoin:round;" version="1.1" viewBox="0 0 512 512" width="100%" xml:space="preserve" xmlns="http://www.w3.org/2000/svg" xmlns:vectornator="http://vectornator.io" xmlns:xlink="http://www.w3.org/1999/xlink">
<metadata>
<vectornator:setting key="IsTimeLapseWatermarkDisabled" value="false"/>
<vectornator:setting key="UndoHistoryDisabled" value="true"/>
<vectornator:setting key="VNDimensionsVisible" value="true"/>
<vectornator:setting key="VNSnapToGuides" value="true"/>
<vectornator:setting key="WDCMYKEnabledKey" value="false"/>
<vectornator:setting key="WDDisplayWhiteBackground" value="false"/>
<vectornator:setting key="WDDynamicGuides" value="false"/>
<vectornator:setting key="WDGuidesVisible" value="true"/>
<vectornator:setting key="WDIsolateActiveLayer" value="false"/>
<vectornator:setting key="WDOutlineMode" value="false"/>
<vectornator:setting key="WDRulersVisible" value="true"/>
<vectornator:setting key="WDSnapToEdges" value="false"/>
<vectornator:setting key="WDSnapToGrid" value="false"/>
<vectornator:setting key="WDSnapToPoints" value="false"/>
<vectornator:setting key="WDUnits" value="Pixels"/>
</metadata>
<defs/>
<g id="route-nav-up-left" vectornator:layerName="route-nav-up-left">
<path d="M495.271 254.61C495.271 122.062 387.82 14.6099 255.271 14.6099C122.723 14.6099 15.2714 122.062 15.2714 254.61C15.2714 387.158 122.723 494.61 255.271 494.61C387.82 494.61 495.271 387.158 495.271 254.61Z" fill="#000000" fill-rule="evenodd" opacity="1" stroke="none"/>
<path d="M144.904 83.6197C184.595 78.4813 224.286 73.3429 263.977 68.2045C301.564 63.3385 308.898 121.64 271.171 126.524C255.042 128.612 238.773 130.718 222.644 132.806C274.126 172.487 325.609 212.168 377.091 251.848C407.11 274.985 371.531 321.801 341.513 298.664C289.951 258.923 238.31 219.12 186.748 179.378C188.854 195.647 190.961 211.917 193.067 228.186C197.933 265.773 139.631 273.107 134.747 235.379C129.609 195.688 124.47 155.997 119.332 116.306C117.28 100.458 129.056 85.6714 144.904 83.6197Z" fill="#ffffff" fill-rule="evenodd" opacity="1" stroke="none"/>
<path d="M388.464 371.317C388.464 354.748 375.032 341.317 358.464 341.317C341.895 341.317 328.464 354.748 328.464 371.317C328.464 387.885 341.895 401.317 358.464 401.317C375.032 401.317 388.464 387.885 388.464 371.317Z" fill="#ffffff" fill-rule="evenodd" opacity="1" stroke="none"/>
<path d="M388.474 274.436L328.474 274.436L328.474 372.139L388.474 372.139L388.474 274.436Z" fill="#ffffff" fill-rule="evenodd" opacity="1" stroke="none"/>
</g>
</svg>
